<?xml version="1.0"?>
<svg xmlns="http://www.w3.org/2000/svg" xmlns:xlink="http://www.w3.org/1999/xlink" xmlns:svgjs="http://svgjs.com/svgjs" version="1.1" width="512" height="512" x="0" y="0" viewBox="0 0 511.974 511.974" style="enable-background:new 0 0 512 512" xml:space="preserve" class=""><g><g xmlns="http://www.w3.org/2000/svg"><path d="m187.209 211.953c3.479 2.247 8.12 1.249 10.369-2.231.731-1.133 1.97-1.809 3.313-1.809 1.342 0 2.58.676 3.312 1.809 1.436 2.222 3.847 3.432 6.308 3.432 1.394 0 2.804-.388 4.062-1.201 3.48-2.247 4.479-6.89 2.232-10.369-3.507-5.43-9.456-8.671-15.913-8.671-6.458 0-12.407 3.242-15.914 8.671-2.248 3.479-1.249 8.122 2.231 10.369z" fill="#1f5478" data-original="#000000" style="" class=""/><path d="m51.25 433.612c-4.081-.691-7.955 2.058-8.647 6.141-3.203 18.899-4.827 40.674-4.827 64.721 0 4.142 3.357 7.5 7.5 7.5s7.5-3.358 7.5-7.5c0-23.208 1.553-44.141 4.616-62.214.692-4.084-2.058-7.956-6.142-8.648z" fill="#1f5478" data-original="#000000" style="" class=""/><path d="m289.416 353.638c.965.414 1.968.61 2.955.61 2.908 0 5.676-1.702 6.896-4.543 1.634-3.806-.127-8.216-3.933-9.851-21.321-9.154-43.994-9.205-60.796-9.119-.961-6.212-.456-14.055.508-18.808 2.65-1.582 5.189-3.353 7.593-5.304.129-.104.256-.208.384-.312h103.719c2.472 0 4.784-1.217 6.183-3.254 1.399-2.038 1.704-4.633.817-6.939-3.935-10.222-7.298-23.671-9.999-39.975-.678-4.086-4.545-6.854-8.625-6.173-4.087.677-6.851 4.539-6.174 8.625 2.061 12.436 4.517 23.391 7.331 32.716h-75.943c27.236-25.424 41.014-48.59 41.014-69.036 0-2.551-.105-5.118-.314-7.63-.004-.039-.007-.077-.011-.115-.27-2.737-.437-8.616-.536-16.234h9.192c4.603 0 8.97-1.03 12.883-2.872.374 7.716 1.013 17.978 2.096 29.456.366 3.884 3.633 6.796 7.458 6.796.235 0 .474-.011.714-.034 4.123-.389 7.151-4.048 6.762-8.171-2.075-21.994-2.487-39.863-2.537-42.43 1.902-3.962 2.968-8.398 2.968-13.079 0-8.176-3.253-15.607-8.532-21.068 18.387-35.599 5.099-72.813-12.714-94.638-18.039-22.099-41.76-31.952-60.443-25.093-2.956 1.085-6.02 2.656-9.015 4.901-8.01-9.975-22.233-18.904-40.172-24.914-24.2-8.108-50.886-9.385-73.214-3.5-24.848 6.547-44.231 21.668-56.056 43.729-13.417 25.032-17.278 58.748-11.489 100.257-4.87 5.383-7.839 12.515-7.839 20.327 0 5.419 1.429 10.51 3.929 14.917-.339 12.578-2.732 77.082-16.646 113.24-.887 2.306-.582 4.902.817 6.939 1.398 2.037 3.711 3.254 6.183 3.254h103.928c.124.1.247.201.372.301 2.415 1.96 4.958 3.738 7.607 5.325.963 4.753 1.466 12.589.506 18.798-34.271-.176-90.639.212-116.156 74.745-1.342 3.919.748 8.183 4.666 9.525.806.275 1.625.406 2.431.406 3.117 0 6.028-1.958 7.095-5.073 15.819-46.204 43.914-59.452 71.046-63.186 5.167 31.146 32.21 54.58 64.566 54.58 32.344 0 59.371-23.407 64.557-54.53 7.997 1.118 16.121 3.065 23.968 6.434zm20.261-170.341h-9.306c-.036-9.756-.023-20.541-.004-30.67h9.311c8.461 0 15.344 6.879 15.344 15.335s-6.884 15.335-15.345 15.335zm-46.177-142.052c12.389-4.547 29.935 3.688 43.653 20.497 14.678 17.983 25.771 48.332 11.518 77.246-2.843-.884-5.864-1.36-8.994-1.36h-9.284c.002-1.503.003-2.976.004-4.413.286-12.5-6.775-24.118-18.012-29.621-.084-.041-.168-.081-.253-.119-10.362-4.604-23.879-8.133-39.316-10.384.469-28.399 7.883-47.148 20.684-51.846zm-170.404 13.22c9.946-18.557 25.645-30.773 46.657-36.31 19.571-5.158 43.127-3.985 64.626 3.219 16.387 5.49 29.429 13.867 34.722 22.062-6.177 9.932-10.74 25.043-11.261 47.927-8.52-.74-17.449-1.124-26.617-1.124-.213 0-.426 0-.635 0-7.057 0-14.116.235-20.988.7-4.133.279-7.257 3.856-6.978 7.989.28 4.132 3.871 7.262 7.989 6.977 6.537-.442 13.255-.666 19.989-.666h.597c29.958 0 57.853 4.437 74.708 11.884 5.945 2.969 9.668 9.157 9.495 15.804-.002.063-.003.155-.003.219-.003 4.613-.013 9.638-.022 14.86-.055 27.842-.115 59.389.713 67.937.172 2.084.259 4.215.259 6.335 0 19.451-18.375 44.583-53.15 72.692-8.885 7.214-20.67 11.344-32.396 11.344h-.262c-11.597 0-22.941-4.026-31.967-11.354-34.764-28.098-53.139-53.23-53.139-72.682 0-2.119.087-4.25.259-6.332.828-8.543.768-40.095.713-67.94-.01-5.222-.02-10.247-.022-14.883 0-.065-.001-.13-.003-.195-.173-6.646 3.551-12.835 9.495-15.804 5.849-2.584 13.006-4.82 21.277-6.646 4.045-.893 6.601-4.896 5.707-8.94-.893-4.044-4.897-6.599-8.939-5.707-9.316 2.056-17.482 4.629-24.272 7.646-.085.038-.169.078-.253.119-11.236 5.503-18.298 17.123-18.012 29.622.001 1.433.002 2.906.005 4.412h-10.497c-2.952 0-5.807.424-8.507 1.214-4.063-35.167-.471-63.516 10.712-84.379zm8.314 128.832h-10.519c-8.461 0-15.344-6.879-15.344-15.335s6.883-15.335 15.344-15.335h10.523c.019 10.129.033 20.914-.004 30.67zm-36.11 108.016c9.43-31.21 12.635-73.312 13.704-95.441 3.652 1.56 7.67 2.425 11.886 2.425h10.404c-.1 7.618-.266 13.497-.536 16.234-.004.038-.007.077-.011.115-.209 2.512-.314 5.079-.314 7.63 0 20.449 13.781 43.616 41.014 69.036h-76.147zm135.201 30h.346c6.242 0 12.41-.87 18.318-2.545-.383 6.968.109 14.662 2.05 20.671-.613 10.676-9.494 19.173-20.324 19.173s-19.712-8.497-20.325-19.173c1.937-5.997 2.431-13.671 2.052-20.628 5.793 1.647 11.814 2.502 17.883 2.502zm.39 65.42c-24.516 0-45.075-17.444-49.551-40.829 5.161-.196 10.19-.194 14.987-.172 3.439 15.917 17.631 27.88 34.564 27.88s31.124-11.963 34.563-27.88c4.732-.021 9.769-.021 14.984.187-4.48 23.379-25.032 40.814-49.547 40.814z" fill="#1f5478" data-original="#000000" style="" class=""/><path d="m124.122 470.954c-1.378-.017-4.147.323-6.818 2.948-2.942 2.89-6.854 9.203-6.854 30.573 0 4.142 3.357 7.5 7.5 7.5s7.5-3.358 7.5-7.5c0-13.047 1.568-17.978 2.247-19.501 2.223-1.268 3.74-3.641 3.79-6.385.074-4.143-3.223-7.561-7.365-7.635z" fill="#1f5478" data-original="#000000" style="" class=""/><path d="m284.479 473.901c-2.673-2.624-5.456-2.952-6.818-2.947-4.142.075-7.438 3.493-7.364 7.634.05 2.774 1.601 5.17 3.864 6.426.563 1.371 2.172 6.453 2.172 19.46 0 4.142 3.357 7.5 7.5 7.5s7.5-3.358 7.5-7.5c-.001-21.37-3.912-27.683-6.854-30.573z" fill="#1f5478" data-original="#000000" style="" class=""/><path d="m474.187 405.389c-.001-3.688-2.684-6.827-6.326-7.405l-10.348-1.64-4.938-11.919 6.154-8.49c2.164-2.984 1.838-7.099-.77-9.706l-21.183-21.18c-2.609-2.609-6.729-2.931-9.713-.763l-8.471 6.158-11.914-4.933-1.647-10.353c-.58-3.641-3.72-6.321-7.407-6.321h-.003l-29.945.012c-3.688.001-6.828 2.685-7.405 6.328l-1.64 10.358-11.903 4.939-8.479-6.154c-2.985-2.167-7.104-1.841-9.712.77l-21.168 21.195c-2.605 2.608-2.929 6.723-.763 9.706l6.158 8.481-4.933 11.928-10.342 1.647c-3.643.58-6.322 3.722-6.32 7.41l.013 29.965c.002 3.687 2.684 6.827 6.325 7.404l10.348 1.641 4.939 11.919-6.154 8.49c-2.164 2.984-1.838 7.099.77 9.706l21.182 21.18c2.609 2.609 6.729 2.932 9.713.763l8.471-6.158 11.914 4.933 1.646 10.352c.58 3.642 3.72 6.321 7.407 6.321h.003l29.945-.012c3.688-.001 6.828-2.684 7.404-6.327l1.641-10.358 11.904-4.94 8.48 6.155c2.986 2.167 7.105 1.842 9.712-.77l21.167-21.195c2.605-2.608 2.929-6.723.763-9.706l-6.157-8.481 4.933-11.928 10.342-1.648c3.642-.581 6.32-3.722 6.319-7.41zm-23.156 24.87c-2.575.411-4.753 2.13-5.75 4.541l-8.141 19.685c-.996 2.409-.67 5.163.861 7.272l4.863 6.698-12.118 12.134-6.695-4.859c-2.111-1.532-4.87-1.859-7.279-.857l-19.661 8.158c-2.409 1-4.126 3.178-4.533 5.754l-1.296 8.18-17.139.007-1.3-8.173c-.41-2.575-2.129-4.753-4.538-5.751l-19.674-8.146c-.924-.382-1.898-.57-2.868-.57-1.562 0-3.109.487-4.411 1.434l-6.686 4.86-12.126-12.126 4.861-6.706c1.53-2.111 1.854-4.865.856-7.273l-8.153-19.674c-.999-2.41-3.178-4.127-5.754-4.536l-8.172-1.296-.007-17.161 8.165-1.301c2.576-.411 4.754-2.13 5.751-4.541l8.141-19.686c.996-2.409.67-5.163-.861-7.272l-4.863-6.698 12.118-12.134 6.694 4.859c2.11 1.534 4.87 1.859 7.279.858l19.661-8.158c2.409-1 4.126-3.179 4.534-5.755l1.294-8.179 17.139-.007 1.301 8.174c.41 2.575 2.129 4.752 4.538 5.75l19.673 8.146c2.411.998 5.169.671 7.279-.863l6.687-4.861 12.127 12.125-4.861 6.706c-1.53 2.111-1.854 4.865-.856 7.273l8.152 19.674c.999 2.41 3.178 4.128 5.755 4.537l8.172 1.295.006 17.161z" fill="#1f5478" data-original="#000000" style="" class=""/><path d="m414.527 412.906c-4.143 0-7.5 3.358-7.5 7.5 0 13.423-10.92 24.343-24.343 24.343s-24.343-10.92-24.343-24.343 10.92-24.343 24.343-24.343c3.516 0 6.904.731 10.071 2.173 3.771 1.718 8.218.051 9.934-3.719s.051-8.217-3.719-9.934c-5.132-2.336-10.611-3.521-16.286-3.521-21.693 0-39.343 17.649-39.343 39.343s17.649 39.343 39.343 39.343 39.343-17.649 39.343-39.343c0-4.141-3.358-7.499-7.5-7.499z" fill="#1f5478" data-original="#000000" style="" class=""/><path d="m200.691 261.399c10.959 0 21.056-5.504 27.009-14.725 2.247-3.48 1.247-8.122-2.232-10.369s-8.123-1.248-10.369 2.232c-3.179 4.922-8.564 7.861-14.407 7.861s-11.229-2.938-14.406-7.861c-2.246-3.48-6.889-4.479-10.368-2.233-3.48 2.247-4.48 6.889-2.233 10.369 5.95 9.222 16.047 14.726 27.006 14.726z" fill="#1f5478" data-original="#000000" style="" class=""/></g></g></svg>
