<?xml version="1.0"?>
<svg xmlns="http://www.w3.org/2000/svg" id="Capa_1" enable-background="new 0 0 512 512" height="512" viewBox="0 0 512 512" width="512" class=""><g><g><g><path d="m494.5 92.229h-477c-9.649 0-17.5-7.851-17.5-17.5v-17.501c0-9.649 7.851-17.5 17.5-17.5h64.311c4.143 0 7.5 3.357 7.5 7.5s-3.357 7.5-7.5 7.5h-64.311c-1.379 0-2.5 1.121-2.5 2.5v17.501c0 1.379 1.121 2.5 2.5 2.5h477c1.379 0 2.5-1.121 2.5-2.5v-17.501c0-1.379-1.121-2.5-2.5-2.5h-378.167c-4.143 0-7.5-3.357-7.5-7.5s3.357-7.5 7.5-7.5h378.167c9.649 0 17.5 7.851 17.5 17.5v17.501c0 9.649-7.851 17.5-17.5 17.5z" data-original="#000000" class="active-path" style="fill:#1F5478" data-old_color="#000000"/><g><path d="m147.401 245.872h-104.546c-9.649 0-17.5-7.851-17.5-17.5v-104.546c0-9.649 7.851-17.5 17.5-17.5h104.546c9.649 0 17.5 7.851 17.5 17.5v104.546c0 9.649-7.85 17.5-17.5 17.5zm-104.546-124.546c-1.379 0-2.5 1.121-2.5 2.5v104.546c0 1.379 1.121 2.5 2.5 2.5h104.546c1.379 0 2.5-1.121 2.5-2.5v-104.546c0-1.379-1.121-2.5-2.5-2.5z" data-original="#000000" class="active-path" style="fill:#1F5478" data-old_color="#000000"/><path d="m308.273 245.872h-104.546c-9.649 0-17.5-7.851-17.5-17.5v-104.546c0-9.649 7.851-17.5 17.5-17.5h104.547c9.649 0 17.5 7.851 17.5 17.5v104.546c-.001 9.649-7.851 17.5-17.501 17.5zm-104.546-124.546c-1.379 0-2.5 1.121-2.5 2.5v104.546c0 1.379 1.121 2.5 2.5 2.5h104.547c1.379 0 2.5-1.121 2.5-2.5v-104.546c0-1.379-1.121-2.5-2.5-2.5z" data-original="#000000" class="active-path" style="fill:#1F5478" data-old_color="#000000"/><path d="m469.145 245.872h-104.546c-9.649 0-17.5-7.851-17.5-17.5v-104.546c0-9.649 7.851-17.5 17.5-17.5h104.546c9.649 0 17.5 7.851 17.5 17.5v104.546c0 9.649-7.851 17.5-17.5 17.5zm-104.546-124.546c-1.379 0-2.5 1.121-2.5 2.5v104.546c0 1.379 1.121 2.5 2.5 2.5h104.546c1.379 0 2.5-1.121 2.5-2.5v-104.546c0-1.379-1.121-2.5-2.5-2.5z" data-original="#000000" class="active-path" style="fill:#1F5478" data-old_color="#000000"/></g></g><g><path d="m494.5 318.629h-477c-9.649 0-17.5-7.851-17.5-17.5v-17.501c0-9.649 7.851-17.5 17.5-17.5h477c9.649 0 17.5 7.851 17.5 17.5v17.501c0 9.65-7.851 17.5-17.5 17.5zm-477-37.501c-1.379 0-2.5 1.121-2.5 2.5v17.501c0 1.379 1.121 2.5 2.5 2.5h477c1.379 0 2.5-1.121 2.5-2.5v-17.501c0-1.379-1.121-2.5-2.5-2.5z" data-original="#000000" class="active-path" style="fill:#1F5478" data-old_color="#000000"/><g><path d="m147.401 472.272h-22.069c-4.143 0-7.5-3.357-7.5-7.5s3.357-7.5 7.5-7.5h22.069c1.379 0 2.5-1.121 2.5-2.5v-104.546c0-1.379-1.121-2.5-2.5-2.5h-104.546c-1.379 0-2.5 1.121-2.5 2.5v104.546c0 1.379 1.121 2.5 2.5 2.5h47.955c4.143 0 7.5 3.357 7.5 7.5s-3.357 7.5-7.5 7.5h-47.955c-9.649 0-17.5-7.851-17.5-17.5v-104.546c0-9.649 7.851-17.5 17.5-17.5h104.546c9.649 0 17.5 7.851 17.5 17.5v104.546c0 9.649-7.85 17.5-17.5 17.5z" data-original="#000000" class="active-path" style="fill:#1F5478" data-old_color="#000000"/><path d="m308.273 472.272h-104.546c-9.649 0-17.5-7.851-17.5-17.5v-104.547c0-9.649 7.851-17.5 17.5-17.5h104.547c9.649 0 17.5 7.851 17.5 17.5v104.547c-.001 9.649-7.851 17.5-17.501 17.5zm-104.546-124.547c-1.379 0-2.5 1.121-2.5 2.5v104.547c0 1.379 1.121 2.5 2.5 2.5h104.547c1.379 0 2.5-1.121 2.5-2.5v-104.547c0-1.379-1.121-2.5-2.5-2.5z" data-original="#000000" class="active-path" style="fill:#1F5478" data-old_color="#000000"/><path d="m469.145 472.272h-104.546c-9.649 0-17.5-7.851-17.5-17.5v-104.546c0-9.649 7.851-17.5 17.5-17.5h104.546c9.649 0 17.5 7.851 17.5 17.5v36.978c0 4.143-3.357 7.5-7.5 7.5s-7.5-3.357-7.5-7.5v-36.978c0-1.379-1.121-2.5-2.5-2.5h-104.546c-1.379 0-2.5 1.121-2.5 2.5v104.546c0 1.379 1.121 2.5 2.5 2.5h104.546c1.379 0 2.5-1.121 2.5-2.5v-33.046c0-4.143 3.357-7.5 7.5-7.5s7.5 3.357 7.5 7.5v33.046c0 9.649-7.851 17.5-17.5 17.5z" data-original="#000000" class="active-path" style="fill:#1F5478" data-old_color="#000000"/></g></g></g></g> </svg>
