<svg xmlns="http://www.w3.org/2000/svg" xmlns:xlink="http://www.w3.org/1999/xlink" viewBox="0 0 1717.35 1440.51">
  <defs>
    <style>
      .cls-1 {
        fill: none;
      }

      .cls-2 {
        isolation: isolate;
      }

      .cls-3 {
        fill: #9cd499;
      }

      .cls-4 {
        fill: #74b570;
      }

      .cls-5 {
        fill: #93b1c2;
      }

      .cls-14, .cls-6 {
        fill: #bdccd4;
      }

      .cls-7 {
        fill: #fff;
      }

      .cls-10, .cls-8 {
        fill: #9ec8ff;
      }

      .cls-8 {
        opacity: 0.7;
      }

      .cls-9 {
        opacity: 0.8;
      }

      .cls-11 {
        fill: #f37168;
      }

      .cls-12 {
        fill: #d6e7f0;
      }

      .cls-13 {
        fill: #f2f2f2;
      }

      .cls-14 {
        opacity: 0.5;
      }

      .cls-15 {
        fill: #d54a41;
      }

      .cls-16 {
        fill: #303c60;
      }

      .cls-17 {
        fill: #58556e;
      }

      .cls-18 {
        fill: #7ec1d6;
      }

      .cls-19 {
        fill: #f09959;
      }

      .cls-20 {
        fill: #9bd6e8;
      }

      .cls-21 {
        fill: #e38540;
      }

      .cls-22 {
        fill: #3e6bab;
      }

      .cls-23 {
        fill: #7a4e34;
      }

      .cls-24 {
        fill: #63acc2;
      }

      .cls-25 {
        fill: #2e5b9a;
      }

      .cls-26 {
        fill: #edc055;
      }

      .cls-27 {
        fill: #f5ce5c;
      }

      .cls-28 {
        fill: #fca96a;
      }

      .cls-29 {
        fill: #f2e5de;
      }

      .cls-30 {
        fill: #3a384d;
      }

      .cls-31 {
        clip-path: url(#clip-path);
      }

      .cls-32 {
        mix-blend-mode: overlay;
      }

      .cls-33 {
        fill: url(#Черно-белый);
      }

      .cls-34 {
        fill: url(#Черно-белый-2);
      }
    </style>
    <clipPath id="clip-path">
      <path class="cls-1" d="M293,52.68c73.65,0,170.41-27.71,200.3-36.84,4.52-1.38,9.19,1.7,9.19,6.08V226.77c0,158.29-206.29,286.61-206.29,286.61S89.89,385.06,89.89,226.77V31.42c0-4.2,4.32-7.26,8.75-6.2C127.09,32,219.35,52.68,293,52.68Z"/>
    </clipPath>
    <linearGradient id="Черно-белый" x1="2166.77" y1="-81.81" x2="1694.29" y2="672.65" gradientTransform="matrix(-1, 0, 0, 1, 2063.53, 0)" gradientUnits="userSpaceOnUse">
      <stop offset="0" stop-color="#fff"/>
      <stop offset="1"/>
    </linearGradient>
    <linearGradient id="Черно-белый-2" data-name="Черно-белый" x1="2081.57" y1="-135.17" x2="1609.1" y2="619.3" xlink:href="#Черно-белый"/>
  </defs>
  <title>paddycover</title>
  <g class="cls-2">
    <g id="Layer_2" data-name="Layer 2">
      <g id="Слой_1" data-name="Слой 1">
        <g>
          <g>
            <path class="cls-3" d="M1168.32,848.67c124.91-147.57,152.26-210.32,149.21-391.19S1450.9,21.77,1378.31,77.76s-174.65,242.78-131.08,387,33.3,191.65,18,231.34-99,140.6-99,140.6Z"/>
            <path class="cls-4" d="M1244.51,751.09l1.22-1.81c6-14.54,36.49-89.6,39.07-124.65,2.86-38.91-30.94-129-10.69-205.92s21.33-145,26.75-197.9C1308,151,1364.06,85,1398.36,72.81a5.83,5.83,0,0,0-1.1-1.55l-9.17.2a55.78,55.78,0,0,0-9.77,6.3c-72.6,56-174.65,242.78-131.08,387s33.3,191.65,18,231.34c-4.13,10.7-13.24,25.87-24.33,42.3Z"/>
            <path class="cls-3" d="M1145.09,1055.81c86.93-207.53,100.18-284.24,102-469.87S1674.39,99.25,1644.88,164.1s-111.31,223.74-227.79,304.58-147.95,164.81-157.73,260.43-90.8,301.28-90.8,301.28l-20.91,35.12Z"/>
            <path class="cls-4" d="M1182.92,970.82a3,3,0,0,1-2.85-3.94c.22-.65,21.83-66.11,36.32-120.77s26.72-152,27-186.58c.28-31.6,18.35-132.59,97.58-219.3,39.41-43.12,68.43-69.19,108.61-105.26,39.68-35.63,89.07-80,170.15-159.8a3,3,0,0,1,4.21,4.28c-81.19,79.92-130.63,124.32-170.35,160-40,36-69,61.94-108.18,104.85-78,85.32-95.73,184.34-96,215.3-.31,34.86-12.62,133-27.22,188.06-14.53,54.84-36.2,120.46-36.42,121.12A3,3,0,0,1,1182.92,970.82Z"/>
            <path class="cls-3" d="M1257.12,1147.82c28.79-147.6,24.77-73.9-21.07-282.07C1183.59,627.48,1463.46,445.26,1498.74,533S1560,889,1541.94,878.7s-121.1-266.36-125.45-256.39S1238.35,703,1237.36,790.94s49.92,232.35,49.92,232.35l-13.19,127.78Z"/>
            <path class="cls-4" d="M1274.44,1150.18a3,3,0,0,1-.56-.05l-17-3.25a3,3,0,0,1-2.38-3.52c3.33-17.06,6.27-31.41,8.64-42.94C1276,1038,1276,1038,1261.25,982.24c-6.68-25.29-15.82-59.92-28.13-115.85a278.93,278.93,0,0,1,1.37-126.5c8.94-37,25.14-72.85,48.14-106.49,39.45-57.7,97.65-105.09,148.29-120.73,35.55-11,61.28-4,70.6,19.22,15,37.31,30.2,112.27,40.67,200.52,4.39,37,7.34,72.09,8.31,98.76,1.61,44.27-2.68,48-4.51,49.62a4.62,4.62,0,0,1-5.52.52c-10.08-5.72-38.79-68.94-78.23-157.62-19.2-43.16-39-87.68-45.4-97.38-3.34,2.75-10.34,6.69-24.08,14.31-49.22,27.31-151.65,84.13-152.4,150.35-1,86.41,49.25,229.88,49.75,231.32a3,3,0,0,1,.16,1.31l-12.84,123.89a3,3,0,0,1-3,2.69Zm-13.45-8.63,10.8,2.07,12.44-120c-3.68-10.62-50.82-148.26-49.87-232.74.78-69.71,105.27-127.68,155.48-155.53,11.54-6.4,22.44-12.45,24-14.41a3.36,3.36,0,0,1,3-1.94h.13c2.47,0,4.34.52,19,31.83,8.63,18.43,19.86,43.68,31.75,70.41,15.09,33.92,32.19,72.36,46.3,102,18.26,38.34,25.59,49.31,28.51,52.14,1.06-2.61,3.19-12.06,1.94-45-1-26.63-4-61.5-8.35-98.2-10.4-87.31-25.41-161.32-40.16-198-8-19.93-31.08-25.67-63.27-15.72C1344.44,545.66,1200.15,688.74,1239,865.1c12.29,55.8,21.41,90.37,28.07,115.61,15.08,57.12,15.08,57.12,2,120.91C1266.7,1113,1264.06,1125.87,1261,1141.55Z"/>
            <g>
              <path class="cls-4" d="M1171,859.11l2-1.92a493.81,493.81,0,0,1,3.35-54.63A272.3,272.3,0,0,0,1171,859.11Z"/>
              <path class="cls-4" d="M1255.88,727.75a160.54,160.54,0,0,0-13.32,37.89c29.73-73.23,163.6-129.69,172.93-140.41l1.73-2.75C1370.46,604.75,1287.66,665.26,1255.88,727.75Z"/>
            </g>
            <path class="cls-4" d="M1542.67,874.92a3,3,0,0,1-3-2.55l-12.35-80.84q-1.18-7.72-2.38-15.67c-11.47-75.57-25.76-169.61-47.34-212.76-3.48-6.95-20.58-17.46-46.24-17.94-34.91-.65-104,17.37-174.26,145.48a3,3,0,1,1-5.26-2.88c71.74-130.88,143.39-149.28,179.63-148.6,28.45.54,47.24,12.75,51.49,21.26,22,44,35.76,134.6,47.9,214.54q1.21,7.94,2.38,15.67l12.35,80.84a3,3,0,0,1-3,3.45Z"/>
            <path class="cls-4" d="M1485.66,745.62a3,3,0,0,1-2.94-3.61c.16-.76,15.79-77.47,2.73-160.76a3,3,0,0,1,5.93-.93c13.23,84.41-2.63,162.14-2.79,162.91A3,3,0,0,1,1485.66,745.62Z"/>
            <path class="cls-4" d="M1466,695.49a3,3,0,0,1-2.94-3.62c.15-.7,14.76-70.95,14.28-130.09a3,3,0,1,1,6,0c.48,59.8-14.26,130.67-14.41,131.38A3,3,0,0,1,1466,695.49Z"/>
            <path class="cls-4" d="M1450.67,340.84a3,3,0,0,1-.49-6c.67-.11,68.06-11.91,120.55-65.42a3,3,0,1,1,4.28,4.2c-53.9,55-123.15,67-123.84,67.14A3,3,0,0,1,1450.67,340.84Z"/>
            <path class="cls-4" d="M1392.34,403.41c-4.4,0-6.95-.18-7.39-.22a3,3,0,0,1,.47-6c.51,0,51.88,3.66,122.8-26.17a3,3,0,1,1,2.33,5.53C1453.17,400.71,1409.17,403.41,1392.34,403.41Z"/>
            <path class="cls-4" d="M1350.79,467.89c-16.16,0-24.48-3-25.16-3.21a3,3,0,1,1,2.09-5.62c.31.11,33,11.48,97.91-13.06a3,3,0,0,1,2.12,5.61C1393.32,464.64,1367.74,467.89,1350.79,467.89Z"/>
          </g>
          <g>
            <path class="cls-3" d="M431.24,1253.41c-2.18-6.62-154.41-200.63-147.22-360.17,5-111.71-28.25-232.81-28.25-232.81s108.13,81,111.45,258.23c2,109.05-1.39,140.59,5.55,170.58s69.46,170.81,69.46,170.81Z"/>
            <path class="cls-4" d="M442.23,1263.06a3,3,0,0,1-1.55-.43l-11-6.65a3,3,0,0,1-1.25-1.51c-.47-1-3.47-5.26-6.94-10.24-15.55-22.3-52-74.54-84-139.14-40.15-80.93-59.15-152.26-56.46-212,5-109.93-27.81-230.67-28.14-231.88a3,3,0,0,1,4.69-3.2c1.12.84,27.78,21.07,55.2,63.44,25.25,39,55.72,104.9,57.45,197.13.69,36.89.76,64.68.81,87,.1,43.55.15,63.43,4.67,83,6.8,29.38,68.65,168.87,69.28,170.27a3,3,0,0,1-2.74,4.22Zm-13.84-8.71,0,.08Zm5.14-3.06,2.12,1.28c-13.84-31.43-59.79-136.71-65.79-162.64-4.67-20.19-4.72-40.28-4.82-84.3-.05-22.31-.12-50.07-.81-86.91C362.52,828,332.64,763.31,307.88,725c-18.57-28.74-37.11-47.36-46.87-56.17,7.51,30.42,30.2,131.29,26,224.57-4.14,91.91,42.76,208.8,139.4,347.42C430.86,1247.18,432.7,1249.86,433.52,1251.28Z"/>
            <path class="cls-3" d="M382.14,1223.33c5.74,10.42,10.77,28.41,15,48.83h10.09c-34.9-171.37-107.94-271.93-220-348.17-138.75-94.41-148-122.72-148-122.72s47.35,213.09,128.91,278.39S361.91,1186.6,382.14,1223.33Z"/>
            <path class="cls-3" d="M322.64,1252.13c13.66.56,26.48,8.63,37.87,20H384c-25.81-44.24-59.5-80.75-100.19-81-102.69-.72-123.13,25.83-193.67,23.74A435.17,435.17,0,0,1,0,1202.68s34.83,63.22,128.3,78.91C194.39,1292.68,273.19,1250.12,322.64,1252.13Z"/>
            <path class="cls-4" d="M410.33,1293.3a3,3,0,0,1-2.92-2.34c-16.23-71.74-43.15-134.54-77.85-181.61-44.16-59.9-88.25-92.35-130.88-123.72-40.43-29.76-78.61-57.86-111.27-106.35a3,3,0,1,1,5-3.35c32.08,47.62,69.86,75.43,109.85,104.87,43,31.64,87.45,64.36,132.15,125,35.69,48.41,62.23,110.26,78.87,183.84a3,3,0,0,1-2.93,3.66Z"/>
            <path class="cls-4" d="M400.78,1305.38a3,3,0,0,1-2.64-1.56C366,1245,334.5,1212.88,299,1202.89c-31.31-8.81-61.68.71-93.83,10.8-9.12,2.86-18.55,5.82-28,8.33-82.83,22-125.66,7-127.44,6.4a3,3,0,0,1,2-5.64c.42.15,43.06,14.89,123.85-6.56,9.32-2.48,18.69-5.41,27.74-8.26,33-10.36,64.21-20.15,97.25-10.85,37.16,10.46,69.82,43.45,102.78,103.83a3,3,0,0,1-2.63,4.44Z"/>
            <path class="cls-4" d="M249.7,1023.58a3,3,0,0,1-1.51-.41c-.53-.31-53.47-30.73-122-34.88a3,3,0,0,1,.36-6c70,4.24,124.13,35.37,124.67,35.68a3,3,0,0,1-1.51,5.59Z"/>
            <path class="cls-4" d="M342.24,1124.7a3,3,0,0,1-2.36-1.15c-42.61-54.4-86-64-180.24-80.66a3,3,0,0,1,1-5.91c95.76,16.89,139.95,26.72,183.92,82.87a3,3,0,0,1-2.36,4.85Z"/>
          </g>
          <g>
            <path class="cls-3" d="M1130.47,1304.31c116.45-230.38,239.3-322.48,403.44-357.47s183.44-57.68,183.44-57.68-124.36,179.4-224.55,209S1273,1124,1240.38,1150.36s-92.47,143-92.47,143l-20.19,15.78Z"/>
            <path class="cls-3" d="M1184.68,1385.48c-1-4.29,48.93-237.57,151.53-241.93s124,21.45,194.39,16.87a435.15,435.15,0,0,0,89.63-15.37s-32.57,64.41-125.43,83.4c-65.66,13.43-145.91-26.31-195.26-22.55s-84.11,105.48-84.11,105.48L1202,1364.71Z"/>
            <path class="cls-4" d="M1136.83,1293.3a3,3,0,0,1-2.73-4.24c.17-.38,17.64-38.74,50.2-85.9,30.08-43.57,79.6-103.85,144.7-143.57,64.3-39.25,117.82-52.74,169.59-65.79,48.16-12.14,93.64-23.61,141.34-55.58a3,3,0,1,1,3.34,5c-48.56,32.55-94.53,44.14-143.21,56.42-51.33,12.94-104.4,26.33-167.93,65.1-64.15,39.16-113.07,98.7-142.81,141.76-32.29,46.74-49.58,84.69-49.75,85.07A3,3,0,0,1,1136.83,1293.3Z"/>
            <path class="cls-4" d="M1198.27,1318.37a3,3,0,0,1-2.79-4.1c35.21-89.16,70.78-139.78,111.94-159.31,36.85-17.48,72.26-7.74,109.74,2.58,9.15,2.52,18.62,5.13,28,7.27,81.73,18.63,123.59,2.34,124,2.17a3,3,0,0,1,2.25,5.56c-1.76.71-44,17.16-127.59-1.88-9.53-2.17-19.06-4.8-28.28-7.33-36.38-10-70.74-19.47-105.58-2.95-39.71,18.83-74.32,68.43-108.94,156.09A3,3,0,0,1,1198.27,1318.37Z"/>
            <path class="cls-4" d="M1567.13,1029.63a3,3,0,0,1-1-.16c-65-22.06-125.54-13.9-126.14-13.81a3,3,0,0,1-.84-5.94c.62-.09,62.48-8.46,128.91,14.07a3,3,0,0,1-1,5.84Z"/>
            <path class="cls-4" d="M1315.72,1074.34a3,3,0,0,1-1.49-5.61c61.92-35.36,106.55-27.77,201.59-7.22a3,3,0,0,1-1.27,5.87c-93.49-20.21-137.34-27.7-197.35,6.57A3,3,0,0,1,1315.72,1074.34Z"/>
          </g>
          <g>
            <path class="cls-5" d="M519.48,149h546.75a67.41,67.41,0,0,0-67.41-67.41H586.89A67.41,67.41,0,0,0,519.48,149Z"/>
            <rect class="cls-6" x="341.97" y="116.48" width="891.25" height="1198.91"/>
            <rect class="cls-7" x="379.97" y="167.61" width="815.24" height="1096.66"/>
            <g>
              <rect class="cls-8" x="445.67" y="392.89" width="696.6" height="19.92" rx="9.63" ry="9.63"/>
              <rect class="cls-8" x="445.67" y="431.55" width="696.6" height="19.92" rx="9.63" ry="9.63"/>
              <path class="cls-8" d="M989,541.66H455.38a9.7,9.7,0,1,1,0-19.4H989a9.7,9.7,0,1,1,0,19.4Z"/>
              <path class="cls-8" d="M989,576.43H455.38a9.7,9.7,0,1,1,0-19.4H989a9.7,9.7,0,1,1,0,19.4Z"/>
              <path class="cls-8" d="M989,677H455.38a9.7,9.7,0,1,1,0-19.4H989a9.7,9.7,0,1,1,0,19.4Z"/>
              <path class="cls-8" d="M989,711.73H455.38a9.7,9.7,0,1,1,0-19.4H989a9.7,9.7,0,1,1,0,19.4Z"/>
              <path class="cls-8" d="M989,836.23H455.38a9.7,9.7,0,1,1,0-19.4H989a9.7,9.7,0,1,1,0,19.4Z"/>
              <path class="cls-8" d="M989,871H455.38a9.7,9.7,0,1,1,0-19.4H989a9.7,9.7,0,1,1,0,19.4Z"/>
              <path class="cls-8" d="M989,960.59H455.38a9.7,9.7,0,1,1,0-19.4H989a9.7,9.7,0,1,1,0,19.4Z"/>
              <path class="cls-8" d="M989,995.35H455.38a9.7,9.7,0,0,1,0-19.4H989a9.7,9.7,0,0,1,0,19.4Z"/>
              <path class="cls-8" d="M1154.37,1169.74H620.74a9.7,9.7,0,0,1,0-19.4h533.63a9.7,9.7,0,0,1,0,19.4Z"/>
              <path class="cls-8" d="M1154.37,1218.19H620.74a9.7,9.7,0,0,1,0-19.4h533.63a9.7,9.7,0,1,1,0,19.4Z"/>
            </g>
            <g>
              <g class="cls-9">
                <path class="cls-10" d="M1080.25,589.29h-31a24.47,24.47,0,0,1-24.44-24.44v-31a24.47,24.47,0,0,1,24.44-24.44h31a24.47,24.47,0,0,1,24.44,24.44v31A24.47,24.47,0,0,1,1080.25,589.29Zm-31-65.88a10.45,10.45,0,0,0-10.44,10.44v31a10.45,10.45,0,0,0,10.44,10.44h31a10.45,10.45,0,0,0,10.44-10.44v-31a10.45,10.45,0,0,0-10.44-10.44Z"/>
              </g>
              <g class="cls-9">
                <path class="cls-10" d="M1080.25,721.05h-31a24.47,24.47,0,0,1-24.44-24.44v-31a24.47,24.47,0,0,1,24.44-24.44h31a24.47,24.47,0,0,1,24.44,24.44v31A24.47,24.47,0,0,1,1080.25,721.05Zm-31-65.88a10.45,10.45,0,0,0-10.44,10.44v31a10.45,10.45,0,0,0,10.44,10.44h31a10.45,10.45,0,0,0,10.44-10.44v-31a10.45,10.45,0,0,0-10.44-10.44Z"/>
              </g>
              <path class="cls-11" d="M1066.68,570.85h-.29a6,6,0,0,1-4.47-2.34l-22.28-29.07a6,6,0,1,1,9.52-7.3l18,23.44,49.42-53a6,6,0,1,1,8.77,8.19l-54.26,58.13A6,6,0,0,1,1066.68,570.85Z"/>
              <path class="cls-11" d="M1066.68,702.61h-.29a6,6,0,0,1-4.47-2.34l-22.28-29.07a6,6,0,0,1,9.52-7.3l18,23.44,49.42-52.95a6,6,0,0,1,8.77,8.19l-54.26,58.13A6,6,0,0,1,1066.68,702.61Z"/>
              <path class="cls-10" d="M1080.25,876.28h-31a23.47,23.47,0,0,1-23.44-23.44v-31a23.47,23.47,0,0,1,23.44-23.44h31a23.47,23.47,0,0,1,23.44,23.44v31A23.47,23.47,0,0,1,1080.25,876.28Zm-31-65.88a11.45,11.45,0,0,0-11.44,11.44v31a11.45,11.45,0,0,0,11.44,11.44h31a11.45,11.45,0,0,0,11.44-11.44v-31a11.45,11.45,0,0,0-11.44-11.44Z"/>
              <g class="cls-9">
                <path class="cls-10" d="M1080.25,1009h-31a24.47,24.47,0,0,1-24.44-24.44v-31a24.47,24.47,0,0,1,24.44-24.44h31a24.47,24.47,0,0,1,24.44,24.44v31A24.47,24.47,0,0,1,1080.25,1009Zm-31-65.88a10.45,10.45,0,0,0-10.44,10.44v31A10.45,10.45,0,0,0,1049.24,995h31a10.45,10.45,0,0,0,10.44-10.44v-31a10.45,10.45,0,0,0-10.44-10.44Z"/>
              </g>
              <path class="cls-11" d="M1066.68,858.84h-.29a6,6,0,0,1-4.47-2.34l-22.28-29.07a6,6,0,0,1,9.52-7.3l18,23.44,49.42-53a6,6,0,0,1,8.77,8.19l-54.26,58.13A6,6,0,0,1,1066.68,858.84Z"/>
              <path class="cls-11" d="M1066.68,990.6h-.29a6,6,0,0,1-4.47-2.34l-22.28-29.07a6,6,0,1,1,9.52-7.3l18,23.44,49.42-52.95a6,6,0,1,1,8.77,8.19l-54.26,58.13A6,6,0,0,1,1066.68,990.6Z"/>
            </g>
            <path class="cls-5" d="M903.46,197.14H671.73a95.26,95.26,0,0,1-95.26-95.26,20.31,20.31,0,0,1,20.31-20.31H978.4a20.31,20.31,0,0,1,20.31,20.31A95.26,95.26,0,0,1,903.46,197.14Z"/>
            <path class="cls-12" d="M611.14,88.79H975.73a13.75,13.75,0,0,1,13.75,13.75v.61A64.46,64.46,0,0,1,925,167.61H661.86a64.46,64.46,0,0,1-64.46-64.46v-.61a13.74,13.74,0,0,1,13.74-13.74Z"/>
            <rect class="cls-8" x="418.08" y="216.38" width="739.02" height="132.42"/>
            <g>
              <path class="cls-7" d="M555,251.6v64.84H540.26V251.6Z"/>
              <path class="cls-7" d="M567.68,316.44V251.6h17.12l13.47,23.76a188,188,0,0,1,10.58,22.22h.29a240.68,240.68,0,0,1-1.25-27v-19h13.47v64.84H606l-13.85-25a240.76,240.76,0,0,1-11.26-22.9l-.29.1c.38,8.56.58,17.7.58,28.29v19.53Z"/>
              <path class="cls-7" d="M634.54,301.34a37.41,37.41,0,0,0,16.26,4c6.73,0,10.29-2.79,10.29-7,0-4-3.08-6.35-10.87-9.14-10.78-3.75-17.8-9.72-17.8-19.14,0-11.06,9.24-19.53,24.53-19.53a39.72,39.72,0,0,1,16.55,3.27l-3.27,11.83a30.82,30.82,0,0,0-13.57-3.08c-6.35,0-9.43,2.89-9.43,6.25,0,4.14,3.66,6,12,9.14,11.45,4.23,16.84,10.2,16.84,19.34,0,10.87-8.37,20.11-26.17,20.11-7.41,0-14.72-1.92-18.37-3.94Z"/>
              <path class="cls-7" d="M700.63,251.6v37.33c0,11.16,4.23,16.84,11.74,16.84,7.7,0,11.93-5.39,11.93-16.84V251.6h14.62V288c0,20-10.1,29.54-27,29.54-16.36,0-26-9-26-29.73V251.6Z"/>
              <path class="cls-7" d="M751.62,252.47a128.87,128.87,0,0,1,19.53-1.35c9.62,0,16.35,1.44,21,5.1,3.85,3.08,6,7.6,6,13.57,0,8.27-5.87,13.95-11.45,16V286c4.52,1.83,7,6.16,8.66,12.12,2,7.31,4,15.78,5.29,18.28h-15c-1.06-1.83-2.6-7.12-4.52-15.1-1.73-8.08-4.52-10.29-10.49-10.39h-4.43v25.49H751.62Zm14.53,27.9h5.77c7.31,0,11.64-3.66,11.64-9.33,0-6-4-8.95-10.78-9a36.6,36.6,0,0,0-6.64.48Z"/>
              <path class="cls-7" d="M824.63,299.8,820,316.44h-15.2l19.82-64.84h19.24L864,316.44H848.2l-5-16.64Zm16.45-11-4-13.76c-1.15-3.85-2.31-8.66-3.27-12.51h-.19c-1,3.85-1.92,8.75-3,12.51l-3.85,13.76Z"/>
              <path class="cls-7" d="M872.63,316.44V251.6h17.13l13.47,23.76a188,188,0,0,1,10.58,22.22h.29a240.68,240.68,0,0,1-1.25-27v-19h13.47v64.84H910.92l-13.85-25a240.71,240.71,0,0,1-11.26-22.9l-.29.1c.38,8.56.58,17.7.58,28.29v19.53Z"/>
              <path class="cls-7" d="M986.63,314.62c-2.69,1.35-8.75,2.79-16.64,2.79-22.42,0-34-13.95-34-32.42,0-22.13,15.78-34.44,35.4-34.44,7.6,0,13.37,1.54,16,2.89l-3,11.64a31.67,31.67,0,0,0-12.31-2.4c-11.64,0-20.68,7-20.68,21.45,0,13,7.7,21.16,20.78,21.16a36.63,36.63,0,0,0,12.22-2.12Z"/>
              <path class="cls-7" d="M1034.83,289H1011v15.39h26.65v12H996.25V251.6h40v12H1011V277.1h23.86Z"/>
            </g>
            <rect class="cls-13" x="776.86" y="99.63" width="198.44" height="21.67" rx="9.63" ry="9.63"/>
          </g>
          <path class="cls-14" d="M1530.78,1386c-273.61-56.29-500.82-30.85-579.47-35.65s-534.53-9.66-630.84,23.27,67.59,77.88,257.72,57S885.26,1414,1188,1436,1568.18,1393.7,1530.78,1386Z"/>
          <g>
            <g>
              <path class="cls-15" d="M591.53,568.35C632.6,598,720.83,610.95,749,612.47s-15.62,79.1-15.62,79.1-75.65,9.13-111.4,0S591.53,568.35,591.53,568.35Z"/>
              <path class="cls-16" d="M521,1337.56c.51,20.28,12.07,32.35,30.93,46.4,19.78,14.72,20.79,16.34-6.59,20s-35-8.8-53.24-14.13-6.59-18.25-7.61-30.42-2.74-31.94-2.74-31.94Z"/>
              <path class="cls-16" d="M680.77,1327.42a306.38,306.38,0,0,0,28.4,28.09c16.23,14,57.3,18.77,37.52,24s-41.93,2.4-62.29,5.33-38.11.09-39.63-5.33,0-44,0-44Z"/>
              <path class="cls-17" d="M736.81,440c25.45-24.17,72.24,6.64,76.65,27.12,11.35,52.69,16.37,107.17,2.56,128.58S679.23,630.6,680.73,623s1.84-54.89,22.21-78,11.11-45.47,14.84-66.83C722.28,452.46,732.73,443.9,736.81,440Z"/>
              <path class="cls-18" d="M684.24,594c-8.67,61.4-17,177-42.13,205.15S603,894.45,603,894.45s81.11-44.3,114.31-153.21c10.41-34.16-15-113.94-21.16-121.55S684.24,594,684.24,594Z"/>
              <g>
                <path class="cls-19" d="M860,762.68c-5,6.09-18.44,35.58-25.25,35.58-23.2,0-24.91,9.1-37.49,15.76-16.16,8.56-12.74,21.68-11.6,22.44s35.53-5.26,47.08-12.79c9.59-6.25,16.4-9.65,21.07-16.5s31.13-26.62,31.13-26.62Z"/>
                <path class="cls-20" d="M836.54,580.54C860,594.72,864.32,607.9,887.39,648s27.13,54.51,36.25,69,12.17,31.18-7.1,49.44c-18.41,17.44-27,24.55-37.1,21.83-6.8-1.84-12.18-21.66-21.64-18.07s7.27-24.3,15.89-32.16c4.7-4.28,6.59-4,5.07-5.91s-30.42-23.5-54.51-54.69S836.54,580.54,836.54,580.54Z"/>
                <g>
                  <path class="cls-18" d="M910.21,730.36c-11.42-5.13-25.69-4.4-36.17-2.41,2.69,2.27,4.39,3.68,4.73,4.11,1.52,2-.38,1.63-5.07,5.91a51.24,51.24,0,0,0-5.65,6.42c8-4.23,16.74-8,23.91-9.08,18.25-2.66,19.4,2.28,28.9,8.37S928.84,738.72,910.21,730.36Z"/>
                  <path class="cls-18" d="M860.14,601.77c-6.29-8.59-13-14.81-23.6-21.22,0,0-36.36,65.64-12.28,96.83a286,286,0,0,0,23.36,26.46C848.12,682.82,850.33,635.86,860.14,601.77Z"/>
                </g>
                <path class="cls-20" d="M747.23,558.85c-31.44,7.1-56.81,16.37-63.3,34.61-3.15,8.85,15.08,154.9,33.34,171.13,35.23,31.32,93.3,2,93.3,2s26.37-65.66,36.83-175.89c2.72-9.94-60.15-29.47-70.29-31.49S747.23,558.85,747.23,558.85Z"/>
                <path class="cls-19" d="M757.82,1333.62s-43.08,59.62-17.22,57.51,42.74-28.73,42.74-28.73,9,30.19,34.83,28.78,11.27-17.22,0-35.68A81,81,0,0,1,807,1319.77Z"/>
                <path class="cls-19" d="M761.52,587.37A19.45,19.45,0,0,1,742.12,568V495.72a19.39,19.39,0,1,1,38.79,0V568A19.45,19.45,0,0,1,761.52,587.37Z"/>
                <path class="cls-21" d="M761.52,476.32a19.45,19.45,0,0,0-19.4,19.39v32.71a120.62,120.62,0,0,0,38.79,35.78V495.72A19.45,19.45,0,0,0,761.52,476.32Z"/>
                <ellipse class="cls-19" cx="776.86" cy="494.02" rx="34.96" ry="48.07" transform="translate(-92.29 190.47) rotate(-13.2)"/>
                <path class="cls-19" d="M721.64,755.89S661.18,801.52,680.57,951s39.93,144.88,41.07,216.75,31.94,171.12,50.2,190.52,63.08-84.57,63.08-176.86c0-53.92,0-79.83,12.57-164.25s9.91-207.63-40.29-261.25S721.64,755.89,721.64,755.89Z"/>
                <path class="cls-21" d="M770.61,1090.11c-.05-35.37-11.76-110.53-9.09-214.44L684.4,978.46c18.18,121.68,36.18,122.11,37.24,189.27.86,54.46,18.76,124.63,35.32,163.87,10.76,3.86,18,8.4,19.91,14.09,2.56,7.63,4.26,11.85,5.27,13.07q.54-.35,1.1-.77c.88-6.37-3.73-38.85-8.79-86.1C765.9,1192,770.66,1125.47,770.61,1090.11Z"/>
                <path class="cls-20" d="M694.47,702.51c10.05,59.08,4,67.07-10.08,116.13s-14.28,179.11-14.28,179.11,38.22,16,112.18,9.13S866.52,992,866.52,992s-8.41-126.63-19-164.28-27.24-63.39-28.06-87.6S694.47,702.51,694.47,702.51Z"/>
                <path class="cls-22" d="M740.6,1391.13c25.86-2.11,42.74-28.73,42.74-28.73s9,30.19,34.83,28.78c22.21-1.2,14.59-13,4.85-28.05-.89,3.37-3.64,6.53-10.94,6.25-15.27-.59-29.62-19.15-29.62-19.15s-26.66,20.54-36.55,19.07,4.81-25.24,4.82-25.26C739.74,1361,721.64,1392.68,740.6,1391.13Z"/>
              </g>
              <g>
                <path class="cls-19" d="M891.73,1042.94c-3,34.23.13,60.09-6,88.23s-19.09,37.27-19.09,37.27l-11.4-131.58Z"/>
                <path class="cls-23" d="M806.54,898.43c-24.59-52.1-27-69.21-12.93-81.38s16.35-28.9,39.55-22.82,30.8,19.39,42.21,24.34,9.13,35.75-5.32,44.11S806.54,898.43,806.54,898.43Z"/>
                <path class="cls-24" d="M787.85,1352.66s-1,15.8,3.36,22.91,7.61,10.35-8.89,10.67-21-3.88-22.32-13.91-1.13-13,1.22-19.13S787.85,1352.66,787.85,1352.66Z"/>
                <path class="cls-24" d="M873.47,1355.16s18.63,16.73,29.66,20.54-4.44,12.17-23.92,8-17.92,1.52-27.8-3-.83-28.84-.83-28.84Z"/>
                <path class="cls-22" d="M875.76,1093.14s0,127,1.52,176.46,2.54,82.9,1.55,88.4c-.42,2.31-21.36-.76-30.49,0s-28.46-113.5-36.48-175.1-11.41-106.48-11.41-106.48Z"/>
                <path class="cls-25" d="M811.87,1182.89c3.77,29,10.06,69.67,16.6,104.51,9-39.72,26.74-110.28,47.37-151.08-.08-25.13-.08-43.18-.08-43.18l-47.28-10.51-27.08,5C802.9,1104.72,806.24,1139.69,811.87,1182.89Z"/>
                <path class="cls-22" d="M767.75,1065.76c-3.8,62.37-9.7,206.17-7.7,238.06,2.18,34.61-2.19,47.92-2.19,47.92s8.37,3,22.06,4.56l8.68,1s34.67-91.47,41.52-154.6,25.1-112.57,25.1-112.57Z"/>
                <path class="cls-26" d="M866.85,933.44c29.44,39.53,32.48,117.11,32.48,117.11s-12,9.13-23.5,4.56S866.85,933.44,866.85,933.44Z"/>
                <path class="cls-27" d="M835.45,912.48c35,8,49.44,48.32,50.2,80.26s-5.32,117.89-5.32,120.93-68.45,9.13-93.55,3.8l-25.1-5.32s-6.85-127,0-158.2,51.72-45.63,51.72-45.63Z"/>
                <g>
                  <path class="cls-26" d="M823.31,998.84c-1.9-11.6,13.62-13.5,20.5-12.55s8.52,8.56,11.41,9.51,6.88-3.49,10.5-.89-.57,10-5.13,10.4-7.23-4.12-10.46-2.06-1.9,3.39-2.47,3.39-12,1.33-12,1.33-4.94-3.23-8.37-2.85-2.13,4-2.13,4-5.67-.38-4.34-4.37A32.68,32.68,0,0,1,823.31,998.84Z"/>
                  <path class="cls-26" d="M849.17,1006.64c3.47-3.85,7-.19,8.56,1.14s-2.69,4-6.08,4S849.17,1006.64,849.17,1006.64Z"/>
                  <path class="cls-26" d="M826.74,1009.11c-.38-2.85,5.32-2.28,7,0s-3.8,4.56-5.51,4S826.74,1009.11,826.74,1009.11Z"/>
                  <path class="cls-26" d="M817.23,1011.77c-.38-1.14-15-7.23-13.31-12.74s11.41,6.37,11.41,6.37-6.65-14.55-3.23-15.69,4.75,9.13,5.13,12.17A81.19,81.19,0,0,1,817.23,1011.77Z"/>
                  <path class="cls-26" d="M858.05,987.25s1-12.36,5.19-9.89-2.6,9.89-2.6,9.89,8.68-6.84,10.77-3-13.37,5.43-13.37,5.43Z"/>
                </g>
                <path class="cls-26" d="M791.37,1065.76c3.08-38.79,11.37-92.79-12.21-131.58l-6.31-.74c-5.27,5.79-9.45,12.62-11.18,20.52-6.85,31.18,0,158.2,0,158.2l25.1,5.32c1.14.24,2.37.46,3.68.66A409.16,409.16,0,0,1,791.37,1065.76Z"/>
                <path class="cls-19" d="M825.18,934.18a18.69,18.69,0,0,1-18.63-18.63V881.32a18.63,18.63,0,1,1,37.27,0v34.23C846.51,933.44,837.19,935.72,825.18,934.18Z"/>
                <path class="cls-21" d="M843.81,917V871.81a9.15,9.15,0,0,0-9.13-9.13h-19a9.15,9.15,0,0,0-9.13,9.13v29C821.32,914.19,834.8,917.09,843.81,917Z"/>
                <ellipse class="cls-28" cx="839.64" cy="862.68" rx="34.23" ry="44.76" transform="translate(-110.45 123.4) rotate(-7.89)"/>
                <path class="cls-28" d="M772.19,934.18c-34.1,15.21-37.14,125.5-38.66,142.23s6.85,73.78,11.41,89,17.47,27.27,18.15,8.34-4.46-28.87-4.46-28.87,6.84,14.45,9.13,6.84-9.89-19-9.89-25.86,9.89-47.16,9.89-60.09,19-54.76,19-89S772.19,934.18,772.19,934.18Z"/>
                <path class="cls-27" d="M783.7,923.77c-31.16,12.69-40.65,49.2-50.36,84.18l-9.71,35s51,18,54,15.86,14.45-65.3,13.69-91.16S783.7,923.77,783.7,923.77Z"/>
                <ellipse class="cls-28" cx="805.27" cy="870.82" rx="7.91" ry="11.71" transform="translate(-256.6 342.42) rotate(-20.78)"/>
                <path class="cls-23" d="M802.36,854.7s9.47,29.36,11.39,18.67-1.12-15.63,6.1-18.67-2.28-23.58,8-21.68,18.63,14.3,34.23,11.33,22.06-6.39,15.59-15.14S818,812.1,818,812.1L795.32,838Z"/>
                <path class="cls-25" d="M851.42,1383.68c9.89,4.56,8.33-1.14,27.8,3s37.31-6.08,26.29-9.89l-.8-.29a54.79,54.79,0,0,0-8.67,5.62c-2.54,2-9.13.51-18.2-1s-7.5,1.1-9.69-1.27-11.11-8.59-21.28-8.6C846.51,1376.7,847.39,1381.83,851.42,1383.68Z"/>
                <path class="cls-25" d="M759.2,1358.87c8.11,16.53,4.24,19.48,11.09,20.62s9.16-4.19,16.48-1.64,6.31,2.54,8,4.56.9,4.5-2.14,5.29-18.76,1-24.85,0-10.14-12.36-9.89-16.43S759.2,1358.87,759.2,1358.87Z"/>
              </g>
              <path class="cls-17" d="M560.76,519.72c-12-16.87-24.08-62.8-13.35-67.49s8-12.07,18.77-25.81,54-19.11,66.7,4,18.2,25.47,18.65,37.88-30,43.24-30,43.24Z"/>
              <path class="cls-19" d="M844.08,789.12c-3.5,5.25-6.85,9.14-9.32,9.14-23.2,0-24.91,9.1-37.49,15.76-16.16,8.56-12.74,21.68-11.6,22.44s35.53-5.26,47.08-12.79c9.59-6.25,16.4-9.65,21.07-16.5a36.51,36.51,0,0,1,4.73-5.11A106.61,106.61,0,0,1,844.08,789.12Z"/>
              <path class="cls-19" d="M568.71,460.35S561.1,554,544.37,564.21s-48.68,48.26-44.11,130.4S510.9,812.19,517,843.91s120.17,12.39,132.34,0,25.86-125.72,0-183.14-54.76-89.88-57.8-104.08,16.73-71.24,16.73-71.24Z"/>
              <path class="cls-21" d="M591.22,553.62c-.38-17.9,17-68.17,17-68.17l-39.55-25.1s-1.66,20.41-5.13,43.22C568.71,535.27,579,547.44,591.22,553.62Z"/>
              <path class="cls-19" d="M640.92,486.66c3.81,27.51-5.66,49-25.47,51.78S573,524.1,569.2,496.59s9.15-52,29-54.77S637.11,459.15,640.92,486.66Z"/>
              <path class="cls-19" d="M858.05,591.93c11.65,7.24,20.52,25.35,15.42,40.06s-12.16-4.16-19.92-15S849.34,586.52,858.05,591.93Z"/>
              <path class="cls-22" d="M650.91,788.75c-8,96,19,312.8,19.21,361.86S689.9,1333.8,689.9,1333.8,658,1343,645.4,1344s-48.79-121.57-54.16-186.59S552,977,552,977l11.62-198Z"/>
              <path class="cls-25" d="M650.91,788.75,563.58,779,552,977s33.92,115.4,39.28,180.42c.07.85.15,1.71.23,2.58.65-100.22,29.79-143.73,60.58-249.85C649.41,863.58,648.32,819.84,650.91,788.75Z"/>
              <path class="cls-22" d="M647.49,820.92C606.42,960.09,568.77,1091.29,543.67,1178s-17.56,175.83-17.56,175.83l-42.21,3.37s-47.47-142.91-15.53-220.26,16.75-124,22.82-196.22c6.85-81.53,18.35-141.1,18.35-141.1Z"/>
              <path class="cls-11" d="M649.33,660.77c-13.89-30.84-28.65-54.47-39.82-71.95a154.29,154.29,0,0,0-18.26-1.45c-11.77-.23-32.27-15.34-44.49-25.26a10.74,10.74,0,0,1-2.4,2.1c-16.73,10.23-48.68,48.26-44.11,130.4s-12.68,110.19-6.59,141.91,143.5,19.77,155.67,7.38S675.19,718.19,649.33,660.77Z"/>
              <path class="cls-11" d="M542.34,544.52,530,577.1l78.27,31.82,9-7.76s-12.08-17.59-9-28.24,6.59-13.69,0-16.23-30-6.59-44.68-12.17S544.89,537.81,542.34,544.52Z"/>
              <path class="cls-15" d="M663.31,727.26c-1.56-24.45-5.77-48.29-14-66.5-3-6.71-6.09-13.06-9.14-19.1l-9.87-4.29s-54.76-43.72-90.51-35.56-37.27,141.32-16.73,155.92,82.14-22.46,101.16-25.68C636.58,730,653.18,728.23,663.31,727.26Z"/>
              <path class="cls-11" d="M802.12,672.54c-22.34,0-45.21-1.9-64.17-7.72-57-17.49-163.82-61.22-184.82-58.36-16.46,2.24-35.75,20.33-33.47,76.61s31.18,44.87,67.28,35.64,84.81-3.58,151,0c22.43,1.21,47-2.4,69.68-7.71C806.4,698.11,804.52,685.33,802.12,672.54Z"/>
              <path class="cls-19" d="M884.27,676.67c-3.87-2.1-36.78-.38-68.24-1.18,2,11,7,29.17,8.23,40.27C858,705.93,884.9,705,884.9,705S891.27,680.48,884.27,676.67Z"/>
              <path class="cls-11" d="M785,670.06c20.17.32,53.61-2.19,58.21.86s12.74,38.89-3.38,43.46c-58.93,16.73-125.1,4.7-204.2-.69s89.58-52.93,89.58-52.93S768.22,669.8,785,670.06Z"/>
              <path class="cls-17" d="M560.76,519.72c13.43-6.64,6.76-19.54,7.93-28.1s-2.56-15.41.64-14.83,2.49,32.84,6.54,32.63,2.54-24.34,6.81-25,5.95-6.68,2.6-17.25-.67-20,8.38-11.58,29.16,27.82,40.89,25.14,11.06-14.75,10.06-16.09-31.17-35.2-31.17-35.2l-59.66,34.19L552.1,494.8Z"/>
              <path class="cls-19" d="M571.47,483.12c.8,8.11,1.08,20.4,1.78,22.16-5.32,2.17-12.12-2.19-15.2-9.73s-2.79-17.44,2.59-19.44C564,474.87,570.54,473.68,571.47,483.12Z"/>
              <path class="cls-17" d="M807.63,464.92c-8.46,27.38-55.62,27.76-57.9,35.37s-.7,31.38-7.61,50.2c-11,30.06-18.11,45.76-33.47,50.33s-21.81-20.87-21.81-20.87,27.52-36.3,29-37.06,16-93.55,16-93.55,36.86-6.76,38.76-7.75,28.52,10.8,28.52,10.8Z"/>
            </g>
            <path class="cls-19" d="M849.27,678.11c5.87,0,35.91-16.82,41.61-17.35S919,666.35,919,666.35s-43.28,33.55-44.08,33.12S849.27,678.11,849.27,678.11Z"/>
            <path class="cls-21" d="M975.3,707l-32.7-3.18s-17.51,15.51-33.47,19.11-28.9-13.49-28.9-13.49l24.78-29,43.68-4.93,33.09,3.39Z"/>
            <path class="cls-19" d="M866.52,702.51s20.18,16.25,37.29,18.58,26.62-6,32.71-11.63-12.93-11.4-19.77-18.11-1.9-17.8-1.9-17.8H884.95Z"/>
            <path class="cls-21" d="M975.3,675.49l-33.08-3.63s-13.69-12.09-20.54-11.09-24.37,14.72-24.37,14.72-15,14-9.77,15.55,20.44-2.9,22.34-6.4-3.8,1.21,13.31,0,19-4.23,19-4.23l33.08,2.64Z"/>
            <path class="cls-21" d="M876.29,711c4.32-6.65,10.35-10.61,21-4.71s13.79,14.2,11.82,16.65-22.08-4.07-29.62-6.34C873.67,714.84,876.29,711,876.29,711Z"/>
            <g>
              <path class="cls-17" d="M1285.73,510.14c5.74-21.64,21.47-73.84-3.55-85.28s-37.54-28.25-62.57-19.66-20,28.25-29,39,6.08,45.77,20.38,58.28S1285.73,510.14,1285.73,510.14Z"/>
              <polygon class="cls-29" points="974.99 672.77 953.92 671.86 944.88 712.72 980.29 719.39 974.99 672.77"/>
              <path class="cls-17" d="M1309.77,593.26c33.08,46.49,12.93,82-28.33,112.17S1143.05,745,1102,746.8s-143.75-29.7-143.75-29.7l6.34-45.23s97.23,9.28,134.88,2.83,171.13-81.43,171.13-81.43Z"/>
              <path class="cls-30" d="M1232.63,614c-11.79,6.3-25.4,13.46-39.44,20.61-13.63,35.48-17.46,71.85-83.61,96a291.87,291.87,0,0,1-43.36,12.17c13.82,2.81,26.39,4.47,35.76,4.06,29.77-1.32,96.69,2.5,142.74-11.81C1243.33,699.59,1233.8,643.61,1232.63,614Z"/>
              <polygon class="cls-19" points="1271.34 465.89 1296.44 547.41 1244.72 611.05 1259.93 556.4 1244.72 500.49 1271.34 465.89"/>
              <path class="cls-21" d="M1271.34,465.89l-26.62,34.6,15.13,55.59a190.82,190.82,0,0,0,21.6-57.37Z"/>
              <ellipse class="cls-19" cx="1235.93" cy="487.16" rx="51.19" ry="38.09" transform="translate(394.06 1514.82) rotate(-72.19)"/>
              <path class="cls-11" d="M1247.51,580.48s-15.29,9.13-15.25,16.23,0,11.16,0,11.16A281.25,281.25,0,0,0,1209,653.93c-10.14,25.94-9.61,39.12-9.61,39.12l64.3-97.84Z"/>
              <path class="cls-30" d="M1338,1351.93c-.51,20.28-22.88,34.61-33.49,40-33.28,16.9-39,27.45-2.54,26.92,27.62-.41,46.65-11.2,76.57-13.23,19-1.29,5.3-22.36,6.32-34.53s-7.61-29.29-7.61-29.29Z"/>
              <path class="cls-30" d="M1178.28,1341.79s-6.72,9.25-22.94,23.25-73.42,14.46-43,28.83c18.5,8.73,52.55,2.4,72.91,5.33s38.11.1,39.63-5.33-4.17-42.51-4.17-42.51Z"/>
              <path class="cls-17" d="M1208.14,803.12c8,96-19,312.8-19.21,361.86S1161,1356.71,1161,1356.71s53.51,21.72,66.06,22.78,39.14-124.44,44.5-189.47,35.49-198.62,35.49-198.62l-11.62-198Z"/>
              <path class="cls-30" d="M1264.4,1245.62c3.32-20.32,5.88-39.75,7.19-55.6,5.36-65,35.49-198.62,35.49-198.62l-3.87-66.05L1207,924c-2,35.35-4.91,72.36-7.82,106.78C1236.15,1111.31,1255.44,1196.17,1264.4,1245.62Z"/>
              <path class="cls-17" d="M1211.56,835.29c37.2,201.57,64.59,281.73,89.69,368.43s19.38,175.78,19.38,175.78l69.59,8.88s27.21-157.79.45-237.09c-16.42-48.64-5.55-114.55-11.62-186.82-6.84-81.53-12.78-164.87-12.78-164.87Z"/>
              <path class="cls-30" d="M1356.23,905.66,1236,957.6c.54,2.48-.54,14.74,0,17.18,58.91,4.91,96.18-.67,144.43,11-1.11-14.14-3.36-47.47-4.3-61.8Z"/>
              <path class="cls-17" d="M1305.21,554.84c50.2,47.49,68.46,97.68,66.76,125.26-3.42,55.83,7.2,270.54,7.2,270.54s-29.49,6.71-78.9,15.75-97.08-4.18-97.08-4.18-8.36-153.39-8-249.72C1195.45,653.76,1305.21,554.84,1305.21,554.84Z"/>
              <path class="cls-30" d="M1354.36,955.91c1.3-25.39,10.39-204.1,9-206.93C1361.81,745.93,1304,611,1304,611c-30.93,42.09-32.88,129.81-32.41,177,.42,42.49,13.22,157.82,15.75,180.25,4.28-.47,8.6-1.09,12.93-1.88C1322,962.4,1340.51,958.75,1354.36,955.91Z"/>
              <polygon class="cls-29" points="1301.26 541.95 1291.62 523.18 1244.72 561.21 1241.93 613.31 1301.26 541.95"/>
              <path class="cls-30" d="M1293.14,584s19.13-8.78,36.75-2.67c-7.24-8.86-13.88-17.66-24.69-27.89,0,0-109.75,98.92-110,157.65-.06,14.35.29,28.9.93,43.26.36-29.42-3.89-50.68,25-89.09,25.6-34,80.12-62,80.12-62Z"/>
              <path class="cls-17" d="M1301.76,537.28l13.8,26.37-34.12,24.44,9.17,15.21s-41.13,26.16-58.35,39.55c-28.86,22.44-39,75.55-39,75.55s4.06-53.11,39-97.15C1264.21,581,1301.76,537.28,1301.76,537.28Z"/>
              <polygon class="cls-6" points="1254.55 953.36 1400.86 971.11 1390.94 1067.96 1251.79 1053.69 1254.55 953.36"/>
              <path class="cls-19" d="M1338.28,890.71l-14.71,53.93-22.31,15.06,18.07,2.91s-3.27,32.06-9.4,46.64.46,19.43,25.31,2.43,31.74-25.26,30.07-45.18-6.23-22.34-3.7-38.86-23.83-40.33-23.83-40.33Z"/>
              <polygon class="cls-29" points="1322.58 917.9 1317.51 945.59 1365.6 953.36 1373.56 917.9 1322.58 917.9"/>
              <path class="cls-17" d="M1335.82,593.26c18.13,7.45,41.2,73.54,74.94,191.27,8.15,28.45-37.2,157.19-37.2,157.19s-57.94-3.69-58.66-13c-.41-5.33,25.48-107.5,22.06-117.34s-23.4-39.85-40.53-106.85S1302.8,579.69,1335.82,593.26Z"/>
              <path class="cls-17" d="M1201.1,434.88c-18,45,21,40.4,37.46,26.46s18.53-1.89,18.2,14.66c-.31,15.54,5.89,4.18,4.46,21.7s-2.56,18.35,3.19,12.27,7.55-28.25,7.55-28.25-1.34,28.7,6.86,30.66,6.91-2.23,6.91-2.23l1.85-48.09-36.15-40.4s-46.38.36-46.43,1.79S1201.1,434.88,1201.1,434.88Z"/>
              <path class="cls-19" d="M1272,481.71c5.57-12.16,17.83-6.43,14.56,7.87a19.89,19.89,0,0,1-16.72,15.59Z"/>
            </g>
          </g>
          <g>
            <path class="cls-5" d="M293,52.68c73.65,0,170.41-27.71,200.3-36.84,4.52-1.38,9.19,1.7,9.19,6.08V226.77c0,158.29-206.29,286.61-206.29,286.61S89.89,385.06,89.89,226.77V31.42c0-4.2,4.32-7.26,8.75-6.2C127.09,32,219.35,52.68,293,52.68Z"/>
            <path class="cls-8" d="M296.18,86.38c55.25,0,123.94-18.12,158.45-32.42,10.29-4.26,21.95,2.63,21.95,13V231.34c0,138.43-180.4,250.65-180.4,250.65s-180.4-112.22-180.4-250.65V74.1c0-9.95,10.82-16.82,21-13.36C170.94,72.4,240.41,86.38,296.18,86.38Z"/>
            <path class="cls-12" d="M298.08,131V438.24S154.61,346.82,154.61,238.19V113.67c0-7.26,7.92-12.26,15.32-9.69C196.73,113.29,253.5,131,298.08,131Z"/>
            <path class="cls-12" d="M298.08,131V438.24s148.6-91.42,148.6-200.05V113.38c0-7.18-7.77-12.2-15.13-9.76C403.74,112.83,343.24,131,298.08,131Z"/>
            <g class="cls-31">
              <g class="cls-32">
                <path class="cls-33" d="M146.68,224.76c19,62.08,29.82,160.07,34.87,218-53.19-49.59-106-108.1-108.67-138.67C69.55,265.86,63,155.6,64.16,79,86.15,105.08,126.59,159.26,146.68,224.76Z"/>
                <path class="cls-34" d="M246.27,348.8C230.66,276.41,185.81,95.74,65.71,39.7,67.47,15.84,70.76.43,76.27.1c22-1.33,48,11.33,48,11.33,117.33-.67,174.67,177.33,180,208s-.67,301.47-12,308.74c-2.47,1.59-14.06-5.3-30.73-17.67C261.12,477.93,258.7,406.47,246.27,348.8Z"/>
              </g>
            </g>
          </g>
        </g>
      </g>
    </g>
  </g>
</svg>
