<svg width="261" height="356" viewBox="0 0 261 356" fill="none" xmlns="http://www.w3.org/2000/svg">
<mask id="mask0" mask-type="alpha" maskUnits="userSpaceOnUse" x="0" y="0" width="261" height="356">
<rect width="261" height="356" fill="#C4C4C4"/>
</mask>
<g mask="url(#mask0)">
<path fill-rule="evenodd" clip-rule="evenodd" d="M212.165 24H43.6923C23.8216 24 7.71324 40.1084 7.71324 59.979V89.676C6.76704 89.676 6 90.4431 6 91.3893V106.238C6 107.184 6.76704 107.951 7.71324 107.951V125.084C6.76704 125.084 6 125.851 6 126.797V158.779C6 159.725 6.76704 160.492 7.71324 160.492V169.629C6.76704 169.629 6 170.396 6 171.343V203.324C6 204.27 6.76704 205.037 7.71324 205.037V478.021C7.71324 497.892 23.8216 514 43.6923 514H212.165C232.036 514 248.144 497.892 248.144 478.021V59.979C248.144 40.1084 232.036 24 212.165 24ZM10.5687 59.979C10.5687 41.6854 25.3986 26.8555 43.6923 26.8555H212.165C230.459 26.8555 245.289 41.6854 245.289 59.979V478.021C245.289 496.315 230.459 511.145 212.165 511.145H43.6923C25.3986 511.145 10.5687 496.315 10.5687 478.021V59.979ZM248.145 193.615C249.091 193.615 249.858 192.848 249.858 191.902V138.219C249.858 137.273 249.091 136.506 248.145 136.506V193.615Z" fill="#272727"/>
<mask id="mask1" mask-type="alpha" maskUnits="userSpaceOnUse" x="20" y="37" width="216" height="464">
<path d="M212.165 500.865H43.6922C31.071 500.865 20.8484 490.642 20.8484 478.021V59.979C20.8484 47.3578 31.071 37.1352 43.6922 37.1352H212.165C224.787 37.1352 235.009 47.3578 235.009 59.979V478.021C235.009 490.642 224.787 500.865 212.165 500.865Z" fill="white"/>
</mask>
<g mask="url(#mask1)">
<rect x="17.8926" y="18.0536" width="220.018" height="484.21" fill="#F6F6F6"/>
<rect x="17.8926" y="18.0536" width="220.018" height="212.373" fill="url(#paint0_linear)"/>
<path d="M96.8953 121.782H98.3082C99.0904 121.782 99.6202 121.858 99.9735 121.984C100.301 122.135 100.579 122.363 100.781 122.691C100.957 122.994 101.058 123.372 101.058 123.826C101.058 124.306 100.932 124.71 100.68 125.038C100.428 125.366 100.074 125.593 99.6454 125.719C99.3679 125.795 98.9137 125.82 98.2325 125.82V128.798H96.8953V121.782ZM98.2325 124.533H98.6614C98.9894 124.533 99.2165 124.508 99.3427 124.457C99.4941 124.407 99.595 124.331 99.6707 124.205C99.7464 124.104 99.7716 123.978 99.7716 123.826C99.7716 123.549 99.6707 123.347 99.4688 123.221C99.3174 123.12 99.0147 123.069 98.611 123.069H98.2325V124.533ZM106.079 123.599H107.366V128.798H106.079V128.243C105.827 128.495 105.55 128.647 105.297 128.773C105.045 128.874 104.767 128.924 104.465 128.924C103.809 128.924 103.228 128.672 102.724 128.142C102.244 127.637 101.992 126.981 101.992 126.224C101.992 125.416 102.244 124.76 102.698 124.255C103.178 123.725 103.758 123.473 104.439 123.473C104.742 123.473 105.045 123.549 105.322 123.65C105.575 123.776 105.827 123.953 106.079 124.18V123.599ZM104.692 124.684C104.288 124.684 103.96 124.811 103.708 125.088C103.43 125.391 103.304 125.744 103.304 126.199C103.304 126.653 103.43 127.006 103.708 127.309C103.985 127.587 104.313 127.738 104.717 127.738C105.121 127.738 105.449 127.587 105.726 127.309C106.004 127.031 106.13 126.653 106.13 126.199C106.13 125.744 106.004 125.366 105.726 125.088C105.449 124.811 105.121 124.684 104.692 124.684ZM112.513 121.605H113.825V128.798H112.513V128.243C112.261 128.495 112.009 128.647 111.756 128.773C111.504 128.874 111.227 128.924 110.924 128.924C110.242 128.924 109.662 128.672 109.183 128.142C108.678 127.637 108.451 126.981 108.451 126.224C108.451 125.416 108.678 124.76 109.158 124.255C109.637 123.725 110.217 123.473 110.873 123.473C111.201 123.473 111.479 123.549 111.756 123.65C112.034 123.776 112.286 123.953 112.513 124.18V121.605ZM111.151 124.684C110.747 124.684 110.419 124.811 110.142 125.088C109.889 125.391 109.738 125.744 109.738 126.199C109.738 126.653 109.889 127.006 110.142 127.309C110.419 127.587 110.747 127.738 111.151 127.738C111.555 127.738 111.908 127.587 112.16 127.309C112.438 127.031 112.589 126.653 112.589 126.199C112.589 125.744 112.438 125.366 112.16 125.088C111.908 124.811 111.555 124.684 111.151 124.684ZM118.972 121.605H120.259V128.798H118.972V128.243C118.72 128.495 118.468 128.647 118.216 128.773C117.938 128.874 117.66 128.924 117.383 128.924C116.702 128.924 116.121 128.672 115.642 128.142C115.137 127.637 114.885 126.981 114.885 126.224C114.885 125.416 115.137 124.76 115.617 124.255C116.071 123.725 116.651 123.473 117.332 123.473C117.635 123.473 117.938 123.549 118.216 123.65C118.493 123.776 118.745 123.953 118.972 124.18V121.605ZM117.61 124.684C117.206 124.684 116.853 124.811 116.601 125.088C116.323 125.391 116.197 125.744 116.197 126.199C116.197 126.653 116.323 127.006 116.601 127.309C116.878 127.587 117.206 127.738 117.61 127.738C118.014 127.738 118.342 127.587 118.619 127.309C118.897 127.031 119.023 126.653 119.023 126.199C119.023 125.744 118.897 125.366 118.619 125.088C118.342 124.811 118.014 124.684 117.61 124.684ZM120.991 123.599H122.328L123.691 126.855L125.179 123.599H126.491L123.262 130.691H121.924L122.984 128.42L120.991 123.599ZM136.584 123.019L135.65 123.902C134.994 123.221 134.288 122.893 133.48 122.893C132.824 122.893 132.244 123.12 131.79 123.574C131.336 124.028 131.109 124.609 131.109 125.265C131.109 125.744 131.209 126.148 131.411 126.527C131.613 126.88 131.891 127.158 132.269 127.385C132.648 127.587 133.051 127.688 133.506 127.688C133.909 127.688 134.262 127.612 134.59 127.461C134.893 127.309 135.246 127.057 135.65 126.678L136.533 127.612C136.029 128.142 135.549 128.47 135.07 128.672C134.616 128.874 134.086 128.975 133.506 128.975C132.395 128.975 131.512 128.621 130.806 127.94C130.125 127.233 129.771 126.35 129.771 125.265C129.771 124.583 129.923 123.953 130.251 123.423C130.579 122.867 131.008 122.438 131.613 122.11C132.194 121.782 132.824 121.605 133.506 121.605C134.086 121.605 134.641 121.732 135.196 121.959C135.726 122.211 136.18 122.564 136.584 123.019ZM140.04 123.473C140.52 123.473 140.999 123.599 141.428 123.852C141.857 124.104 142.185 124.432 142.437 124.836C142.664 125.265 142.791 125.719 142.791 126.199C142.791 126.678 142.664 127.132 142.437 127.561C142.185 127.991 141.857 128.319 141.428 128.571C141.024 128.798 140.545 128.924 140.04 128.924C139.309 128.924 138.653 128.672 138.148 128.142C137.618 127.612 137.341 126.956 137.341 126.199C137.341 125.391 137.643 124.735 138.249 124.18C138.754 123.725 139.359 123.473 140.04 123.473ZM140.066 124.71C139.662 124.71 139.309 124.836 139.056 125.113C138.779 125.416 138.653 125.77 138.653 126.199C138.653 126.653 138.779 127.006 139.031 127.284C139.309 127.561 139.637 127.713 140.066 127.713C140.469 127.713 140.797 127.561 141.075 127.284C141.352 127.006 141.479 126.653 141.479 126.199C141.479 125.744 141.352 125.391 141.075 125.113C140.823 124.836 140.469 124.71 140.066 124.71ZM143.295 123.599H144.632L145.944 126.678L147.256 123.599H148.568L146.348 128.798H145.516L143.295 123.599ZM154.523 126.577H150.335C150.41 126.931 150.562 127.233 150.814 127.461C151.092 127.662 151.42 127.789 151.823 127.789C152.303 127.789 152.732 127.612 153.06 127.259L154.17 127.789C153.892 128.167 153.564 128.47 153.186 128.647C152.807 128.823 152.353 128.924 151.823 128.924C151.016 128.924 150.36 128.672 149.855 128.167C149.325 127.637 149.073 127.006 149.073 126.224C149.073 125.442 149.325 124.785 149.855 124.255C150.36 123.751 150.991 123.473 151.773 123.473C152.58 123.473 153.236 123.751 153.766 124.255C154.271 124.785 154.523 125.467 154.523 126.325V126.577ZM153.211 125.542C153.135 125.265 152.959 125.038 152.706 124.861C152.454 124.684 152.176 124.583 151.823 124.583C151.47 124.583 151.142 124.684 150.864 124.886C150.713 125.012 150.536 125.24 150.41 125.542H153.211ZM155.28 123.599H156.39V124.255C156.516 124.003 156.693 123.826 156.869 123.675C157.071 123.549 157.298 123.473 157.525 123.473C157.702 123.473 157.879 123.523 158.055 123.624L157.652 124.735C157.5 124.659 157.374 124.634 157.273 124.634C157.097 124.634 156.92 124.76 156.769 124.987C156.642 125.24 156.567 125.719 156.567 126.451V126.703V128.798H155.28V123.599Z" fill="white"/>
<path fill-rule="evenodd" clip-rule="evenodd" d="M127.475 88.5698C144.355 88.5698 158.055 102.274 158.055 119.157C158.055 117.29 155.103 115.776 151.495 115.776C147.862 115.776 144.91 117.29 144.91 119.157H144.279C144.279 117.29 140.57 115.776 136.003 115.776C131.437 115.776 127.753 117.29 127.753 119.157H127.046C127.046 117.29 123.413 115.776 118.897 115.776C114.38 115.776 110.747 117.29 110.747 119.157H110.116C110.116 117.29 107.139 115.776 103.506 115.776C99.8473 115.776 96.8953 117.29 96.8953 119.157C96.8953 102.274 110.596 88.5698 127.475 88.5698Z" fill="white"/>
<path d="M144.582 119.157C145.137 102.324 136.306 88.1659 127.475 88.5697C118.644 88.1659 109.839 102.324 110.368 119.157" stroke="#219653" stroke-width="0.638889"/>
<path d="M127.475 119.157V88.5698" stroke="#219653" stroke-width="0.638889"/>
<path d="M51.0314 179.264C50.3781 179.264 49.7901 179.152 49.2674 178.928C48.7447 178.695 48.3341 178.368 48.0354 177.948C47.7367 177.528 47.5874 177.038 47.5874 176.478H49.2954C49.3327 176.917 49.4961 177.276 49.7854 177.556C50.0841 177.836 50.4994 177.976 51.0314 177.976C51.5821 177.976 52.0114 177.841 52.3194 177.57C52.6274 177.29 52.7814 176.931 52.7814 176.492C52.7814 176.165 52.6834 175.899 52.4874 175.694C52.3007 175.489 52.0627 175.33 51.7734 175.218C51.4934 175.106 51.1014 174.985 50.5974 174.854C49.9627 174.686 49.4447 174.518 49.0434 174.35C48.6514 174.173 48.3154 173.902 48.0354 173.538C47.7554 173.174 47.6154 172.689 47.6154 172.082C47.6154 171.522 47.7554 171.032 48.0354 170.612C48.3154 170.192 48.7074 169.87 49.2114 169.646C49.7154 169.422 50.2987 169.31 50.9614 169.31C51.9041 169.31 52.6741 169.548 53.2714 170.024C53.8781 170.491 54.2141 171.135 54.2794 171.956H52.5154C52.4874 171.573 52.3194 171.256 52.0114 171.004C51.7127 170.743 51.3067 170.612 50.7934 170.612C50.3267 170.612 49.9487 170.733 49.6594 170.976C49.3794 171.209 49.2394 171.559 49.2394 172.026C49.2394 172.325 49.3281 172.572 49.5054 172.768C49.6921 172.955 49.9254 173.104 50.2054 173.216C50.4854 173.328 50.8681 173.449 51.3534 173.58C51.9974 173.757 52.5201 173.935 52.9214 174.112C53.3321 174.289 53.6774 174.565 53.9574 174.938C54.2467 175.302 54.3914 175.792 54.3914 176.408C54.3914 176.903 54.2561 177.369 53.9854 177.808C53.7241 178.247 53.3367 178.601 52.8234 178.872C52.3194 179.133 51.7221 179.264 51.0314 179.264ZM63.3446 175.092C63.3446 175.363 63.3259 175.615 63.2886 175.848H57.3806C57.4273 176.492 57.6559 177.005 58.0666 177.388C58.4773 177.761 58.9859 177.948 59.5926 177.948C60.4513 177.948 61.0579 177.589 61.4126 176.87H63.1346C62.9013 177.579 62.4766 178.163 61.8606 178.62C61.2539 179.068 60.4979 179.292 59.5926 179.292C58.8553 179.292 58.1926 179.129 57.6046 178.802C57.0259 178.466 56.5686 177.999 56.2326 177.402C55.9059 176.795 55.7426 176.095 55.7426 175.302C55.7426 174.509 55.9013 173.813 56.2186 173.216C56.5453 172.609 56.9979 172.143 57.5766 171.816C58.1646 171.489 58.8366 171.326 59.5926 171.326C60.3206 171.326 60.9693 171.485 61.5386 171.802C62.1079 172.119 62.5513 172.563 62.8686 173.132C63.1859 173.701 63.3446 174.355 63.3446 175.092ZM61.6786 174.7C61.6693 174.075 61.4593 173.58 61.0486 173.216C60.6473 172.852 60.1386 172.67 59.5226 172.67C58.9626 172.67 58.4819 172.852 58.0806 173.216C57.6886 173.58 57.4599 174.075 57.3946 174.7H61.6786ZM66.5112 168.806V179.166H64.9152V168.806H66.5112ZM75.6766 175.092C75.6766 175.363 75.658 175.615 75.6206 175.848H69.7126C69.7593 176.492 69.988 177.005 70.3986 177.388C70.8093 177.761 71.318 177.948 71.9246 177.948C72.7833 177.948 73.39 177.589 73.7446 176.87H75.4666C75.2333 177.579 74.8086 178.163 74.1926 178.62C73.586 179.068 72.83 179.292 71.9246 179.292C71.1873 179.292 70.5246 179.129 69.9366 178.802C69.358 178.466 68.9006 177.999 68.5646 177.402C68.238 176.795 68.0746 176.095 68.0746 175.302C68.0746 174.509 68.2333 173.813 68.5506 173.216C68.8773 172.609 69.33 172.143 69.9086 171.816C70.4966 171.489 71.1686 171.326 71.9246 171.326C72.6526 171.326 73.3013 171.485 73.8706 171.802C74.44 172.119 74.8833 172.563 75.2006 173.132C75.518 173.701 75.6766 174.355 75.6766 175.092ZM74.0106 174.7C74.0013 174.075 73.7913 173.58 73.3806 173.216C72.9793 172.852 72.4706 172.67 71.8546 172.67C71.2946 172.67 70.814 172.852 70.4126 173.216C70.0206 173.58 69.792 174.075 69.7266 174.7H74.0106ZM76.7153 175.302C76.7153 174.509 76.8739 173.813 77.1913 173.216C77.5179 172.609 77.9659 172.143 78.5353 171.816C79.1046 171.489 79.7579 171.326 80.4953 171.326C81.4286 171.326 82.1986 171.55 82.8053 171.998C83.4213 172.437 83.8366 173.067 84.0513 173.888H82.3293C82.1893 173.505 81.9653 173.207 81.6573 172.992C81.3493 172.777 80.9619 172.67 80.4953 172.67C79.8419 172.67 79.3193 172.903 78.9273 173.37C78.5446 173.827 78.3533 174.471 78.3533 175.302C78.3533 176.133 78.5446 176.781 78.9273 177.248C79.3193 177.715 79.8419 177.948 80.4953 177.948C81.4193 177.948 82.0306 177.542 82.3293 176.73H84.0513C83.8273 177.514 83.4073 178.139 82.7913 178.606C82.1753 179.063 81.4099 179.292 80.4953 179.292C79.7579 179.292 79.1046 179.129 78.5353 178.802C77.9659 178.466 77.5179 177.999 77.1913 177.402C76.8739 176.795 76.7153 176.095 76.7153 175.302ZM87.5038 172.754V177.024C87.5038 177.313 87.5691 177.523 87.6998 177.654C87.8398 177.775 88.0731 177.836 88.3998 177.836H89.3798V179.166H88.1198C87.4011 179.166 86.8505 178.998 86.4678 178.662C86.0851 178.326 85.8938 177.78 85.8938 177.024V172.754H84.9838V171.452H85.8938V169.534H87.5038V171.452H89.3798V172.754H87.5038ZM95.916 171.452L98.086 177.332L100.34 171.452H101.992L97.26 182.792H95.608L97.176 179.04L94.138 171.452H95.916ZM106.542 179.292C105.814 179.292 105.156 179.129 104.568 178.802C103.98 178.466 103.518 177.999 103.182 177.402C102.846 176.795 102.678 176.095 102.678 175.302C102.678 174.518 102.851 173.823 103.196 173.216C103.542 172.609 104.013 172.143 104.61 171.816C105.208 171.489 105.875 171.326 106.612 171.326C107.35 171.326 108.017 171.489 108.614 171.816C109.212 172.143 109.683 172.609 110.028 173.216C110.374 173.823 110.546 174.518 110.546 175.302C110.546 176.086 110.369 176.781 110.014 177.388C109.66 177.995 109.174 178.466 108.558 178.802C107.952 179.129 107.28 179.292 106.542 179.292ZM106.542 177.948C106.953 177.948 107.336 177.845 107.69 177.64C108.054 177.435 108.348 177.136 108.572 176.744C108.796 176.343 108.908 175.862 108.908 175.302C108.908 174.742 108.801 174.266 108.586 173.874C108.372 173.473 108.087 173.174 107.732 172.978C107.378 172.773 106.995 172.67 106.584 172.67C106.174 172.67 105.796 172.773 105.45 172.978C105.105 173.174 104.825 173.473 104.61 173.874C104.405 174.266 104.302 174.742 104.302 175.302C104.302 175.862 104.4 176.343 104.596 176.744C104.802 177.145 105.072 177.449 105.408 177.654C105.754 177.85 106.132 177.948 106.542 177.948ZM119.11 171.452V179.166H117.514V178.256C117.262 178.573 116.931 178.825 116.52 179.012C116.119 179.189 115.69 179.278 115.232 179.278C114.626 179.278 114.08 179.152 113.594 178.9C113.118 178.648 112.74 178.275 112.46 177.78C112.19 177.285 112.054 176.688 112.054 175.988V171.452H113.636V175.75C113.636 176.441 113.809 176.973 114.154 177.346C114.5 177.71 114.971 177.892 115.568 177.892C116.166 177.892 116.637 177.71 116.982 177.346C117.337 176.973 117.514 176.441 117.514 175.75V171.452H119.11ZM122.812 172.796C123.045 172.329 123.353 171.97 123.736 171.718C124.128 171.457 124.59 171.326 125.122 171.326V172.978H124.716C124.091 172.978 123.615 173.137 123.288 173.454C122.971 173.771 122.812 174.322 122.812 175.106V179.166H121.216V171.452H122.812V172.796ZM132.382 172.586C132.653 172.231 133.022 171.933 133.488 171.69C133.955 171.447 134.482 171.326 135.07 171.326C135.742 171.326 136.354 171.494 136.904 171.83C137.464 172.157 137.903 172.619 138.22 173.216C138.538 173.813 138.696 174.499 138.696 175.274C138.696 176.049 138.538 176.744 138.22 177.36C137.903 177.967 137.464 178.443 136.904 178.788C136.354 179.124 135.742 179.292 135.07 179.292C134.482 179.292 133.96 179.175 133.502 178.942C133.045 178.699 132.672 178.401 132.382 178.046V182.834H130.786V171.452H132.382V172.586ZM137.072 175.274C137.072 174.742 136.96 174.285 136.736 173.902C136.522 173.51 136.232 173.216 135.868 173.02C135.514 172.815 135.131 172.712 134.72 172.712C134.319 172.712 133.936 172.815 133.572 173.02C133.218 173.225 132.928 173.524 132.704 173.916C132.49 174.308 132.382 174.77 132.382 175.302C132.382 175.834 132.49 176.301 132.704 176.702C132.928 177.094 133.218 177.393 133.572 177.598C133.936 177.803 134.319 177.906 134.72 177.906C135.131 177.906 135.514 177.803 135.868 177.598C136.232 177.383 136.522 177.075 136.736 176.674C136.96 176.273 137.072 175.806 137.072 175.274ZM141.871 172.796C142.104 172.329 142.412 171.97 142.795 171.718C143.187 171.457 143.649 171.326 144.181 171.326V172.978H143.775C143.149 172.978 142.673 173.137 142.347 173.454C142.029 173.771 141.871 174.322 141.871 175.106V179.166H140.275V171.452H141.871V172.796ZM152.718 175.092C152.718 175.363 152.699 175.615 152.662 175.848H146.754C146.8 176.492 147.029 177.005 147.44 177.388C147.85 177.761 148.359 177.948 148.966 177.948C149.824 177.948 150.431 177.589 150.786 176.87H152.508C152.274 177.579 151.85 178.163 151.234 178.62C150.627 179.068 149.871 179.292 148.966 179.292C148.228 179.292 147.566 179.129 146.978 178.802C146.399 178.466 145.942 177.999 145.606 177.402C145.279 176.795 145.116 176.095 145.116 175.302C145.116 174.509 145.274 173.813 145.592 173.216C145.918 172.609 146.371 172.143 146.95 171.816C147.538 171.489 148.21 171.326 148.966 171.326C149.694 171.326 150.342 171.485 150.912 171.802C151.481 172.119 151.924 172.563 152.242 173.132C152.559 173.701 152.718 174.355 152.718 175.092ZM151.052 174.7C151.042 174.075 150.832 173.58 150.422 173.216C150.02 172.852 149.512 172.67 148.896 172.67C148.336 172.67 147.855 172.852 147.454 173.216C147.062 173.58 146.833 174.075 146.768 174.7H151.052ZM157.522 172.754H156.094V179.166H154.484V172.754H153.574V171.452H154.484V170.906C154.484 170.019 154.718 169.375 155.184 168.974C155.66 168.563 156.402 168.358 157.41 168.358V169.688C156.925 169.688 156.584 169.781 156.388 169.968C156.192 170.145 156.094 170.458 156.094 170.906V171.452H157.522V172.754ZM166.007 175.092C166.007 175.363 165.988 175.615 165.951 175.848H160.043C160.089 176.492 160.318 177.005 160.729 177.388C161.139 177.761 161.648 177.948 162.255 177.948C163.113 177.948 163.72 177.589 164.075 176.87H165.797C165.563 177.579 165.139 178.163 164.523 178.62C163.916 179.068 163.16 179.292 162.255 179.292C161.517 179.292 160.855 179.129 160.267 178.802C159.688 178.466 159.231 177.999 158.895 177.402C158.568 176.795 158.405 176.095 158.405 175.302C158.405 174.509 158.563 173.813 158.881 173.216C159.207 172.609 159.66 172.143 160.239 171.816C160.827 171.489 161.499 171.326 162.255 171.326C162.983 171.326 163.631 171.485 164.201 171.802C164.77 172.119 165.213 172.563 165.531 173.132C165.848 173.701 166.007 174.355 166.007 175.092ZM164.341 174.7C164.331 174.075 164.121 173.58 163.711 173.216C163.309 172.852 162.801 172.67 162.185 172.67C161.625 172.67 161.144 172.852 160.743 173.216C160.351 173.58 160.122 174.075 160.057 174.7H164.341ZM169.173 172.796C169.407 172.329 169.715 171.97 170.097 171.718C170.489 171.457 170.951 171.326 171.483 171.326V172.978H171.077C170.452 172.978 169.976 173.137 169.649 173.454C169.332 173.771 169.173 174.322 169.173 175.106V179.166H167.577V171.452H169.173V172.796ZM174.546 172.796C174.78 172.329 175.088 171.97 175.47 171.718C175.862 171.457 176.324 171.326 176.856 171.326V172.978H176.45C175.825 172.978 175.349 173.137 175.022 173.454C174.705 173.771 174.546 174.322 174.546 175.106V179.166H172.95V171.452H174.546V172.796ZM185.393 175.092C185.393 175.363 185.375 175.615 185.337 175.848H179.429C179.476 176.492 179.705 177.005 180.115 177.388C180.526 177.761 181.035 177.948 181.641 177.948C182.5 177.948 183.107 177.589 183.461 176.87H185.183C184.95 177.579 184.525 178.163 183.909 178.62C183.303 179.068 182.547 179.292 181.641 179.292C180.904 179.292 180.241 179.129 179.653 178.802C179.075 178.466 178.617 177.999 178.281 177.402C177.955 176.795 177.791 176.095 177.791 175.302C177.791 174.509 177.95 173.813 178.267 173.216C178.594 172.609 179.047 172.143 179.625 171.816C180.213 171.489 180.885 171.326 181.641 171.326C182.369 171.326 183.018 171.485 183.587 171.802C184.157 172.119 184.6 172.563 184.917 173.132C185.235 173.701 185.393 174.355 185.393 175.092ZM183.727 174.7C183.718 174.075 183.508 173.58 183.097 173.216C182.696 172.852 182.187 172.67 181.571 172.67C181.011 172.67 180.531 172.852 180.129 173.216C179.737 173.58 179.509 174.075 179.443 174.7H183.727ZM186.432 175.274C186.432 174.499 186.591 173.813 186.908 173.216C187.235 172.619 187.673 172.157 188.224 171.83C188.784 171.494 189.405 171.326 190.086 171.326C190.59 171.326 191.085 171.438 191.57 171.662C192.065 171.877 192.457 172.166 192.746 172.53V168.806H194.356V179.166H192.746V178.004C192.485 178.377 192.121 178.685 191.654 178.928C191.197 179.171 190.669 179.292 190.072 179.292C189.4 179.292 188.784 179.124 188.224 178.788C187.673 178.443 187.235 177.967 186.908 177.36C186.591 176.744 186.432 176.049 186.432 175.274ZM192.746 175.302C192.746 174.77 192.634 174.308 192.41 173.916C192.195 173.524 191.911 173.225 191.556 173.02C191.201 172.815 190.819 172.712 190.408 172.712C189.997 172.712 189.615 172.815 189.26 173.02C188.905 173.216 188.616 173.51 188.392 173.902C188.177 174.285 188.07 174.742 188.07 175.274C188.07 175.806 188.177 176.273 188.392 176.674C188.616 177.075 188.905 177.383 189.26 177.598C189.624 177.803 190.007 177.906 190.408 177.906C190.819 177.906 191.201 177.803 191.556 177.598C191.911 177.393 192.195 177.094 192.41 176.702C192.634 176.301 192.746 175.834 192.746 175.302ZM54.6294 193.334C54.6294 193.829 54.5127 194.295 54.2794 194.734C54.0461 195.173 53.6727 195.532 53.1594 195.812C52.6461 196.083 51.9881 196.218 51.1854 196.218H49.4214V200.166H47.8254V190.436H51.1854C51.9321 190.436 52.5621 190.567 53.0754 190.828C53.5981 191.08 53.9854 191.425 54.2374 191.864C54.4987 192.303 54.6294 192.793 54.6294 193.334ZM51.1854 194.972C51.7921 194.972 52.2447 194.827 52.5434 194.538C52.8421 194.249 52.9914 193.847 52.9914 193.334C52.9914 192.811 52.8421 192.405 52.5434 192.116C52.2447 191.827 51.7921 191.682 51.1854 191.682H49.4214V194.972H51.1854ZM57.7476 189.806V200.166H56.1516V189.806H57.7476ZM59.311 196.274C59.311 195.499 59.4696 194.813 59.787 194.216C60.1136 193.619 60.5523 193.157 61.103 192.83C61.663 192.494 62.279 192.326 62.951 192.326C63.5576 192.326 64.085 192.447 64.533 192.69C64.9903 192.923 65.3543 193.217 65.625 193.572V192.452H67.235V200.166H65.625V199.018C65.3543 199.382 64.9856 199.685 64.519 199.928C64.0523 200.171 63.5203 200.292 62.923 200.292C62.2603 200.292 61.6536 200.124 61.103 199.788C60.5523 199.443 60.1136 198.967 59.787 198.36C59.4696 197.744 59.311 197.049 59.311 196.274ZM65.625 196.302C65.625 195.77 65.513 195.308 65.289 194.916C65.0743 194.524 64.7896 194.225 64.435 194.02C64.0803 193.815 63.6976 193.712 63.287 193.712C62.8763 193.712 62.4936 193.815 62.139 194.02C61.7843 194.216 61.495 194.51 61.271 194.902C61.0563 195.285 60.949 195.742 60.949 196.274C60.949 196.806 61.0563 197.273 61.271 197.674C61.495 198.075 61.7843 198.383 62.139 198.598C62.503 198.803 62.8856 198.906 63.287 198.906C63.6976 198.906 64.0803 198.803 64.435 198.598C64.7896 198.393 65.0743 198.094 65.289 197.702C65.513 197.301 65.625 196.834 65.625 196.302ZM73.2233 192.326C73.8299 192.326 74.3713 192.452 74.8473 192.704C75.3326 192.956 75.7106 193.329 75.9813 193.824C76.2519 194.319 76.3873 194.916 76.3873 195.616V200.166H74.8053V195.854C74.8053 195.163 74.6326 194.636 74.2873 194.272C73.9419 193.899 73.4706 193.712 72.8733 193.712C72.2759 193.712 71.7999 193.899 71.4453 194.272C71.0999 194.636 70.9273 195.163 70.9273 195.854V200.166H69.3313V192.452H70.9273V193.334C71.1886 193.017 71.5199 192.769 71.9213 192.592C72.3319 192.415 72.7659 192.326 73.2233 192.326Z" fill="white"/>
<g filter="url(#filter0_d)">
<rect x="30.635" y="195.597" width="194.533" height="69.6582" rx="5" fill="#EAEAEA"/>
</g>
<g filter="url(#filter1_d)">
<rect x="30.635" y="278.847" width="194.533" height="69.6582" rx="5" fill="white"/>
</g>
<path d="M47.0012 209.601C47.8892 209.601 48.6652 209.773 49.3292 210.117C50.0012 210.453 50.5172 210.941 50.8772 211.581C51.2452 212.213 51.4292 212.953 51.4292 213.801C51.4292 214.649 51.2452 215.385 50.8772 216.009C50.5172 216.633 50.0012 217.113 49.3292 217.449C48.6652 217.777 47.8892 217.941 47.0012 217.941H44.2772V209.601H47.0012ZM47.0012 216.897C47.9692 216.897 48.7132 216.621 49.2332 216.069C49.7612 215.517 50.0252 214.761 50.0252 213.801C50.0252 212.833 49.7612 212.077 49.2332 211.533C48.7132 210.981 47.9692 210.705 47.0012 210.705H45.6452V216.897H47.0012ZM52.329 214.605C52.329 213.941 52.465 213.353 52.737 212.841C53.017 212.329 53.393 211.933 53.865 211.653C54.345 211.365 54.873 211.221 55.449 211.221C55.969 211.221 56.421 211.325 56.805 211.533C57.197 211.733 57.509 211.985 57.741 212.289V211.329H59.121V217.941H57.741V216.957C57.509 217.269 57.193 217.529 56.793 217.737C56.393 217.945 55.937 218.049 55.425 218.049C54.857 218.049 54.337 217.905 53.865 217.617C53.393 217.321 53.017 216.913 52.737 216.393C52.465 215.865 52.329 215.269 52.329 214.605ZM57.741 214.629C57.741 214.173 57.645 213.777 57.453 213.441C57.269 213.105 57.025 212.849 56.721 212.673C56.417 212.497 56.089 212.409 55.737 212.409C55.385 212.409 55.057 212.497 54.753 212.673C54.449 212.841 54.201 213.093 54.009 213.429C53.825 213.757 53.733 214.149 53.733 214.605C53.733 215.061 53.825 215.461 54.009 215.805C54.201 216.149 54.449 216.413 54.753 216.597C55.065 216.773 55.393 216.861 55.737 216.861C56.089 216.861 56.417 216.773 56.721 216.597C57.025 216.421 57.269 216.165 57.453 215.829C57.645 215.485 57.741 215.085 57.741 214.629ZM61.6138 210.453C61.3658 210.453 61.1578 210.369 60.9898 210.201C60.8218 210.033 60.7378 209.825 60.7378 209.577C60.7378 209.329 60.8218 209.121 60.9898 208.953C61.1578 208.785 61.3658 208.701 61.6138 208.701C61.8538 208.701 62.0578 208.785 62.2258 208.953C62.3938 209.121 62.4778 209.329 62.4778 209.577C62.4778 209.825 62.3938 210.033 62.2258 210.201C62.0578 210.369 61.8538 210.453 61.6138 210.453ZM62.2858 211.329V217.941H60.9178V211.329H62.2858ZM65.4499 209.061V217.941H64.0819V209.061H65.4499ZM67.9899 211.329L69.8499 216.369L71.7819 211.329H73.1979L69.1419 221.049H67.7259L69.0699 217.833L66.4659 211.329H67.9899ZM83.66 212.085C83.66 212.509 83.56 212.909 83.36 213.285C83.16 213.661 82.84 213.969 82.4 214.209C81.96 214.441 81.396 214.557 80.708 214.557H79.196V217.941H77.828V209.601H80.708C81.348 209.601 81.888 209.713 82.328 209.937C82.776 210.153 83.108 210.449 83.324 210.825C83.548 211.201 83.66 211.621 83.66 212.085ZM80.708 213.489C81.228 213.489 81.616 213.365 81.872 213.117C82.128 212.869 82.256 212.525 82.256 212.085C82.256 211.637 82.128 211.289 81.872 211.041C81.616 210.793 81.228 210.669 80.708 210.669H79.196V213.489H80.708ZM86.3327 209.061V217.941H84.9647V209.061H86.3327ZM87.6728 214.605C87.6728 213.941 87.8088 213.353 88.0808 212.841C88.3608 212.329 88.7368 211.933 89.2088 211.653C89.6888 211.365 90.2168 211.221 90.7928 211.221C91.3128 211.221 91.7648 211.325 92.1488 211.533C92.5408 211.733 92.8528 211.985 93.0848 212.289V211.329H94.4648V217.941H93.0848V216.957C92.8528 217.269 92.5368 217.529 92.1368 217.737C91.7368 217.945 91.2808 218.049 90.7688 218.049C90.2008 218.049 89.6808 217.905 89.2088 217.617C88.7368 217.321 88.3608 216.913 88.0808 216.393C87.8088 215.865 87.6728 215.269 87.6728 214.605ZM93.0848 214.629C93.0848 214.173 92.9888 213.777 92.7968 213.441C92.6128 213.105 92.3688 212.849 92.0648 212.673C91.7608 212.497 91.4328 212.409 91.0808 212.409C90.7288 212.409 90.4008 212.497 90.0968 212.673C89.7928 212.841 89.5448 213.093 89.3528 213.429C89.1688 213.757 89.0768 214.149 89.0768 214.605C89.0768 215.061 89.1688 215.461 89.3528 215.805C89.5448 216.149 89.7928 216.413 90.0968 216.597C90.4088 216.773 90.7368 216.861 91.0808 216.861C91.4328 216.861 91.7608 216.773 92.0648 216.597C92.3688 216.421 92.6128 216.165 92.7968 215.829C92.9888 215.485 93.0848 215.085 93.0848 214.629ZM99.5976 211.221C100.118 211.221 100.582 211.329 100.99 211.545C101.406 211.761 101.73 212.081 101.962 212.505C102.194 212.929 102.31 213.441 102.31 214.041V217.941H100.954V214.245C100.954 213.653 100.806 213.201 100.51 212.889C100.214 212.569 99.8096 212.409 99.2976 212.409C98.7856 212.409 98.3776 212.569 98.0736 212.889C97.7776 213.201 97.6296 213.653 97.6296 214.245V217.941H96.2616V211.329H97.6296V212.085C97.8536 211.813 98.1376 211.601 98.4816 211.449C98.8336 211.297 99.2056 211.221 99.5976 211.221Z" fill="#4F4F4F"/>
<path d="M44.4319 231.931V230.947H43.4944V230.179H44.4319V227.214H45.6799C45.7151 227.273 45.7834 227.433 45.885 227.695C45.9866 227.957 46.2991 228.785 46.8225 230.179H48.2346V227.214H49.1838V230.179H50.1213V230.947H49.1838V231.931H50.1213V232.699H49.1838V235.781H47.9241L46.7874 232.699H45.3694V235.781H44.4319V232.699H43.4944V231.931H44.4319ZM48.2346 230.947H47.0979L47.4553 231.931H48.2346V230.947ZM45.3694 231.931H46.4944L46.137 230.947H45.3694V231.931ZM45.2756 228.726C45.3108 229.3 45.3342 229.785 45.3459 230.179H45.8499L45.3225 228.726H45.2756ZM48.3225 234.005L48.2463 232.699H47.7424C48.0198 233.445 48.1975 233.88 48.2756 234.005H48.3225ZM56.6044 228.209H52.5844V230.597C52.7524 230.373 53.0004 230.185 53.3284 230.033C53.6644 229.881 54.0204 229.805 54.3964 229.805C55.0684 229.805 55.6124 229.949 56.0284 230.237C56.4524 230.525 56.7524 230.889 56.9284 231.329C57.1124 231.769 57.2044 232.233 57.2044 232.721C57.2044 233.313 57.0884 233.841 56.8564 234.305C56.6324 234.761 56.2924 235.121 55.8364 235.385C55.3884 235.649 54.8364 235.781 54.1804 235.781C53.3084 235.781 52.6084 235.565 52.0804 235.133C51.5524 234.701 51.2364 234.129 51.1324 233.417H52.4644C52.5524 233.793 52.7484 234.093 53.0524 234.317C53.3564 234.533 53.7364 234.641 54.1924 234.641C54.7604 234.641 55.1844 234.469 55.4644 234.125C55.7524 233.781 55.8964 233.325 55.8964 232.757C55.8964 232.181 55.7524 231.741 55.4644 231.437C55.1764 231.125 54.7524 230.969 54.1924 230.969C53.8004 230.969 53.4684 231.069 53.1964 231.269C52.9324 231.461 52.7404 231.725 52.6204 232.061H51.3244V227.009H56.6044V228.209ZM61.7484 227.033C60.6044 227.033 59.7964 227.421 59.3244 228.197C58.8604 228.973 58.6284 230.037 58.6284 231.389C58.6284 232.749 58.8604 233.817 59.3244 234.593C59.7964 235.369 60.6044 235.757 61.7484 235.757C62.8924 235.757 63.6964 235.369 64.1604 234.593C64.6324 233.817 64.8684 232.749 64.8684 231.389C64.8684 230.037 64.6324 228.973 64.1604 228.197C63.6964 227.421 62.8924 227.033 61.7484 227.033ZM61.7484 228.281C62.2524 228.281 62.6324 228.421 62.8884 228.701C63.1444 228.981 63.3124 229.341 63.3924 229.781C63.4804 230.221 63.5244 230.757 63.5244 231.389C63.5244 232.029 63.4804 232.569 63.3924 233.009C63.3124 233.449 63.1444 233.809 62.8884 234.089C62.6324 234.369 62.2524 234.509 61.7484 234.509C61.2444 234.509 60.8644 234.369 60.6084 234.089C60.3524 233.809 60.1804 233.449 60.0924 233.009C60.0124 232.569 59.9724 232.029 59.9724 231.389C59.9724 230.757 60.0124 230.221 60.0924 229.781C60.1804 229.341 60.3524 228.981 60.6084 228.701C60.8644 228.421 61.2444 228.281 61.7484 228.281ZM69.4359 227.033C68.2919 227.033 67.4839 227.421 67.0119 228.197C66.5479 228.973 66.3159 230.037 66.3159 231.389C66.3159 232.749 66.5479 233.817 67.0119 234.593C67.4839 235.369 68.2919 235.757 69.4359 235.757C70.5799 235.757 71.3839 235.369 71.8479 234.593C72.3199 233.817 72.5559 232.749 72.5559 231.389C72.5559 230.037 72.3199 228.973 71.8479 228.197C71.3839 227.421 70.5799 227.033 69.4359 227.033ZM69.4359 228.281C69.9399 228.281 70.3199 228.421 70.5759 228.701C70.8319 228.981 70.9999 229.341 71.0799 229.781C71.1679 230.221 71.2119 230.757 71.2119 231.389C71.2119 232.029 71.1679 232.569 71.0799 233.009C70.9999 233.449 70.8319 233.809 70.5759 234.089C70.3199 234.369 69.9399 234.509 69.4359 234.509C68.9319 234.509 68.5519 234.369 68.2959 234.089C68.0399 233.809 67.8679 233.449 67.7799 233.009C67.6999 232.569 67.6599 232.029 67.6599 231.389C67.6599 230.757 67.6999 230.221 67.7799 229.781C67.8679 229.341 68.0399 228.981 68.2959 228.701C68.5519 228.421 68.9319 228.281 69.4359 228.281ZM74.7354 235.865C74.4874 235.865 74.2794 235.781 74.1114 235.613C73.9434 235.445 73.8594 235.237 73.8594 234.989C73.8594 234.741 73.9434 234.533 74.1114 234.365C74.2794 234.197 74.4874 234.113 74.7354 234.113C74.9754 234.113 75.1794 234.197 75.3474 234.365C75.5154 234.533 75.5994 234.741 75.5994 234.989C75.5994 235.237 75.5154 235.445 75.3474 235.613C75.1794 235.781 74.9754 235.865 74.7354 235.865ZM80.018 227.033C78.874 227.033 78.066 227.421 77.594 228.197C77.13 228.973 76.898 230.037 76.898 231.389C76.898 232.749 77.13 233.817 77.594 234.593C78.066 235.369 78.874 235.757 80.018 235.757C81.162 235.757 81.966 235.369 82.43 234.593C82.902 233.817 83.138 232.749 83.138 231.389C83.138 230.037 82.902 228.973 82.43 228.197C81.966 227.421 81.162 227.033 80.018 227.033ZM80.018 228.281C80.522 228.281 80.902 228.421 81.158 228.701C81.414 228.981 81.582 229.341 81.662 229.781C81.75 230.221 81.794 230.757 81.794 231.389C81.794 232.029 81.75 232.569 81.662 233.009C81.582 233.449 81.414 233.809 81.158 234.089C80.902 234.369 80.522 234.509 80.018 234.509C79.514 234.509 79.134 234.369 78.878 234.089C78.622 233.809 78.45 233.449 78.362 233.009C78.282 232.569 78.242 232.029 78.242 231.389C78.242 230.757 78.282 230.221 78.362 229.781C78.45 229.341 78.622 228.981 78.878 228.701C79.134 228.421 79.514 228.281 80.018 228.281ZM87.7055 227.033C86.5615 227.033 85.7535 227.421 85.2815 228.197C84.8175 228.973 84.5855 230.037 84.5855 231.389C84.5855 232.749 84.8175 233.817 85.2815 234.593C85.7535 235.369 86.5615 235.757 87.7055 235.757C88.8495 235.757 89.6535 235.369 90.1175 234.593C90.5895 233.817 90.8255 232.749 90.8255 231.389C90.8255 230.037 90.5895 228.973 90.1175 228.197C89.6535 227.421 88.8495 227.033 87.7055 227.033ZM87.7055 228.281C88.2095 228.281 88.5895 228.421 88.8455 228.701C89.1015 228.981 89.2695 229.341 89.3495 229.781C89.4375 230.221 89.4815 230.757 89.4815 231.389C89.4815 232.029 89.4375 232.569 89.3495 233.009C89.2695 233.449 89.1015 233.809 88.8455 234.089C88.5895 234.369 88.2095 234.509 87.7055 234.509C87.2015 234.509 86.8215 234.369 86.5655 234.089C86.3095 233.809 86.1375 233.449 86.0495 233.009C85.9695 232.569 85.9295 232.029 85.9295 231.389C85.9295 230.757 85.9695 230.221 86.0495 229.781C86.1375 229.341 86.3095 228.981 86.5655 228.701C86.8215 228.421 87.2015 228.281 87.7055 228.281Z" fill="#828282"/>
<path d="M47.8992 250.169H47.1012L44.7002 246.536V250.169H43.9022V245.297H44.7002L47.1012 248.923V245.297H47.8992V250.169ZM50.6201 250.232C50.2561 250.232 49.9271 250.15 49.6331 249.987C49.3391 249.819 49.1081 249.585 48.9401 249.287C48.7721 248.983 48.6881 248.633 48.6881 248.237C48.6881 247.845 48.7745 247.497 48.9471 247.194C49.1198 246.89 49.3555 246.657 49.6541 246.494C49.9528 246.33 50.2865 246.249 50.6551 246.249C51.0238 246.249 51.3575 246.33 51.6561 246.494C51.9548 246.657 52.1905 246.89 52.3631 247.194C52.5358 247.497 52.6221 247.845 52.6221 248.237C52.6221 248.629 52.5335 248.976 52.3561 249.28C52.1788 249.583 51.9361 249.819 51.6281 249.987C51.3248 250.15 50.9888 250.232 50.6201 250.232ZM50.6201 249.56C50.8255 249.56 51.0168 249.508 51.1941 249.406C51.3761 249.303 51.5231 249.154 51.6351 248.958C51.7471 248.757 51.8031 248.517 51.8031 248.237C51.8031 247.957 51.7495 247.719 51.6421 247.523C51.5348 247.322 51.3925 247.173 51.2151 247.075C51.0378 246.972 50.8465 246.921 50.6411 246.921C50.4358 246.921 50.2468 246.972 50.0741 247.075C49.9015 247.173 49.7615 247.322 49.6541 247.523C49.5515 247.719 49.5001 247.957 49.5001 248.237C49.5001 248.517 49.5491 248.757 49.6471 248.958C49.7498 249.158 49.8851 249.31 50.0531 249.413C50.2258 249.511 50.4148 249.56 50.6201 249.56ZM56.372 247.299V247.971H53.495V247.299H56.372ZM57.2397 248.237C57.2397 247.84 57.319 247.492 57.4777 247.194C57.641 246.89 57.865 246.657 58.1497 246.494C58.4344 246.33 58.761 246.249 59.1297 246.249C59.5964 246.249 59.9814 246.361 60.2847 246.585C60.5927 246.804 60.8004 247.119 60.9077 247.53H60.0467C59.9767 247.338 59.8647 247.189 59.7107 247.082C59.5567 246.974 59.363 246.921 59.1297 246.921C58.803 246.921 58.5417 247.037 58.3457 247.271C58.1544 247.499 58.0587 247.821 58.0587 248.237C58.0587 248.652 58.1544 248.976 58.3457 249.21C58.5417 249.443 58.803 249.56 59.1297 249.56C59.5917 249.56 59.8974 249.357 60.0467 248.951H60.9077C60.7957 249.343 60.5857 249.655 60.2777 249.889C59.9697 250.117 59.587 250.232 59.1297 250.232C58.761 250.232 58.4344 250.15 58.1497 249.987C57.865 249.819 57.641 249.585 57.4777 249.287C57.319 248.983 57.2397 248.633 57.2397 248.237ZM62.501 244.989V250.169H61.703V244.989H62.501ZM63.2827 248.223C63.2827 247.835 63.362 247.492 63.5207 247.194C63.684 246.895 63.9033 246.664 64.1787 246.501C64.4587 246.333 64.7667 246.249 65.1027 246.249C65.406 246.249 65.6697 246.309 65.8937 246.431C66.1223 246.547 66.3043 246.694 66.4397 246.872V246.312H67.2447V250.169H66.4397V249.595C66.3043 249.777 66.12 249.928 65.8867 250.05C65.6533 250.171 65.3873 250.232 65.0887 250.232C64.7573 250.232 64.454 250.148 64.1787 249.98C63.9033 249.807 63.684 249.569 63.5207 249.266C63.362 248.958 63.2827 248.61 63.2827 248.223ZM66.4397 248.237C66.4397 247.971 66.3837 247.74 66.2717 247.544C66.1643 247.348 66.022 247.198 65.8447 247.096C65.6673 246.993 65.476 246.942 65.2707 246.942C65.0653 246.942 64.874 246.993 64.6967 247.096C64.5193 247.194 64.3747 247.341 64.2627 247.537C64.1553 247.728 64.1017 247.957 64.1017 248.223C64.1017 248.489 64.1553 248.722 64.2627 248.923C64.3747 249.123 64.5193 249.277 64.6967 249.385C64.8787 249.487 65.07 249.539 65.2707 249.539C65.476 249.539 65.6673 249.487 65.8447 249.385C66.022 249.282 66.1643 249.133 66.2717 248.937C66.3837 248.736 66.4397 248.503 66.4397 248.237ZM68.6988 245.801C68.5542 245.801 68.4328 245.752 68.3348 245.654C68.2368 245.556 68.1878 245.434 68.1878 245.29C68.1878 245.145 68.2368 245.024 68.3348 244.926C68.4328 244.828 68.5542 244.779 68.6988 244.779C68.8388 244.779 68.9578 244.828 69.0558 244.926C69.1538 245.024 69.2028 245.145 69.2028 245.29C69.2028 245.434 69.1538 245.556 69.0558 245.654C68.9578 245.752 68.8388 245.801 68.6988 245.801ZM69.0908 246.312V250.169H68.2928V246.312H69.0908ZM74.8075 246.249C75.1109 246.249 75.3815 246.312 75.6195 246.438C75.8622 246.564 76.0512 246.75 76.1865 246.998C76.3265 247.245 76.3965 247.544 76.3965 247.894V250.169H75.6055V248.013C75.6055 247.667 75.5192 247.404 75.3465 247.222C75.1739 247.035 74.9382 246.942 74.6395 246.942C74.3409 246.942 74.1029 247.035 73.9255 247.222C73.7529 247.404 73.6665 247.667 73.6665 248.013V250.169H72.8755V248.013C72.8755 247.667 72.7892 247.404 72.6165 247.222C72.4439 247.035 72.2082 246.942 71.9095 246.942C71.6109 246.942 71.3729 247.035 71.1955 247.222C71.0229 247.404 70.9365 247.667 70.9365 248.013V250.169H70.1385V246.312H70.9365V246.753C71.0672 246.594 71.2329 246.47 71.4335 246.382C71.6342 246.293 71.8489 246.249 72.0775 246.249C72.3855 246.249 72.6609 246.314 72.9035 246.445C73.1462 246.575 73.3329 246.764 73.4635 247.012C73.5802 246.778 73.7622 246.594 74.0095 246.459C74.2569 246.319 74.5229 246.249 74.8075 246.249ZM78.798 250.232C78.4993 250.232 78.231 250.178 77.993 250.071C77.755 249.959 77.566 249.809 77.426 249.623C77.286 249.431 77.2113 249.219 77.202 248.986H78.028C78.042 249.163 78.119 249.31 78.259 249.427C78.4036 249.543 78.5833 249.602 78.798 249.602C79.022 249.602 79.1946 249.557 79.316 249.469C79.442 249.375 79.505 249.252 79.505 249.098C79.505 248.958 79.435 248.85 79.295 248.776C79.155 248.701 78.938 248.626 78.644 248.552C78.3593 248.472 78.126 248.398 77.944 248.328C77.7666 248.253 77.6126 248.141 77.482 247.992C77.3513 247.838 77.286 247.639 77.286 247.397C77.286 247.187 77.3443 246.995 77.461 246.823C77.5776 246.645 77.7456 246.505 77.965 246.403C78.189 246.3 78.4503 246.249 78.749 246.249C79.1876 246.249 79.54 246.361 79.806 246.585C80.0766 246.804 80.2213 247.105 80.24 247.488H79.442C79.428 247.301 79.358 247.154 79.232 247.047C79.106 246.935 78.9356 246.879 78.721 246.879C78.511 246.879 78.35 246.923 78.238 247.012C78.126 247.096 78.07 247.21 78.07 247.355C78.07 247.457 78.1073 247.544 78.182 247.614C78.2566 247.684 78.35 247.74 78.462 247.782C78.574 247.819 78.7326 247.866 78.938 247.922C79.218 247.996 79.4466 248.071 79.624 248.146C79.8013 248.22 79.953 248.335 80.079 248.489C80.205 248.638 80.268 248.834 80.268 249.077C80.268 249.296 80.2096 249.494 80.093 249.672C79.9763 249.844 79.806 249.982 79.582 250.085C79.3626 250.183 79.1013 250.232 78.798 250.232ZM84.0479 246.886C84.1832 246.699 84.3675 246.547 84.6009 246.431C84.8389 246.309 85.1025 246.249 85.3919 246.249C85.7325 246.249 86.0405 246.33 86.3159 246.494C86.5912 246.657 86.8082 246.89 86.9669 247.194C87.1255 247.492 87.2049 247.835 87.2049 248.223C87.2049 248.61 87.1255 248.958 86.9669 249.266C86.8082 249.569 86.5889 249.807 86.3089 249.98C86.0335 250.148 85.7279 250.232 85.3919 250.232C85.0932 250.232 84.8272 250.173 84.5939 250.057C84.3652 249.94 84.1832 249.791 84.0479 249.609V250.169H83.2499V244.989H84.0479V246.886ZM86.3929 248.223C86.3929 247.957 86.3369 247.728 86.2249 247.537C86.1175 247.341 85.9729 247.194 85.7909 247.096C85.6135 246.993 85.4222 246.942 85.2169 246.942C85.0162 246.942 84.8249 246.993 84.6429 247.096C84.4655 247.198 84.3209 247.348 84.2089 247.544C84.1015 247.74 84.0479 247.971 84.0479 248.237C84.0479 248.503 84.1015 248.736 84.2089 248.937C84.3209 249.133 84.4655 249.282 84.6429 249.385C84.8249 249.487 85.0162 249.539 85.2169 249.539C85.4222 249.539 85.6135 249.487 85.7909 249.385C85.9729 249.277 86.1175 249.123 86.2249 248.923C86.3369 248.722 86.3929 248.489 86.3929 248.223ZM89.667 250.232C89.303 250.232 88.974 250.15 88.68 249.987C88.386 249.819 88.155 249.585 87.987 249.287C87.819 248.983 87.735 248.633 87.735 248.237C87.735 247.845 87.8213 247.497 87.994 247.194C88.1667 246.89 88.4023 246.657 88.701 246.494C88.9997 246.33 89.3333 246.249 89.702 246.249C90.0707 246.249 90.4043 246.33 90.703 246.494C91.0017 246.657 91.2373 246.89 91.41 247.194C91.5827 247.497 91.669 247.845 91.669 248.237C91.669 248.629 91.5803 248.976 91.403 249.28C91.2257 249.583 90.983 249.819 90.675 249.987C90.3717 250.15 90.0357 250.232 89.667 250.232ZM89.667 249.56C89.8723 249.56 90.0637 249.508 90.241 249.406C90.423 249.303 90.57 249.154 90.682 248.958C90.794 248.757 90.85 248.517 90.85 248.237C90.85 247.957 90.7963 247.719 90.689 247.523C90.5817 247.322 90.4393 247.173 90.262 247.075C90.0847 246.972 89.8933 246.921 89.688 246.921C89.4827 246.921 89.2937 246.972 89.121 247.075C88.9483 247.173 88.8083 247.322 88.701 247.523C88.5983 247.719 88.547 247.957 88.547 248.237C88.547 248.517 88.596 248.757 88.694 248.958C88.7967 249.158 88.932 249.31 89.1 249.413C89.2727 249.511 89.4617 249.56 89.667 249.56ZM94.4039 246.249C94.7072 246.249 94.9779 246.312 95.2159 246.438C95.4585 246.564 95.6475 246.75 95.7829 246.998C95.9182 247.245 95.9859 247.544 95.9859 247.894V250.169H95.1949V248.013C95.1949 247.667 95.1085 247.404 94.9359 247.222C94.7632 247.035 94.5275 246.942 94.2289 246.942C93.9302 246.942 93.6922 247.035 93.5149 247.222C93.3422 247.404 93.2559 247.667 93.2559 248.013V250.169H92.4579V246.312H93.2559V246.753C93.3865 246.594 93.5522 246.47 93.7529 246.382C93.9582 246.293 94.1752 246.249 94.4039 246.249ZM100.497 246.312V250.169H99.6988V249.714C99.5728 249.872 99.4071 249.998 99.2018 250.092C99.0011 250.18 98.7864 250.225 98.5578 250.225C98.2544 250.225 97.9814 250.162 97.7388 250.036C97.5008 249.91 97.3118 249.723 97.1718 249.476C97.0364 249.228 96.9688 248.93 96.9688 248.58V246.312H97.7598V248.461C97.7598 248.806 97.8461 249.072 98.0188 249.259C98.1914 249.441 98.4271 249.532 98.7258 249.532C99.0244 249.532 99.2601 249.441 99.4328 249.259C99.6101 249.072 99.6988 248.806 99.6988 248.461V246.312H100.497ZM102.936 250.232C102.637 250.232 102.369 250.178 102.131 250.071C101.893 249.959 101.704 249.809 101.564 249.623C101.424 249.431 101.349 249.219 101.34 248.986H102.166C102.18 249.163 102.257 249.31 102.397 249.427C102.541 249.543 102.721 249.602 102.936 249.602C103.16 249.602 103.332 249.557 103.454 249.469C103.58 249.375 103.643 249.252 103.643 249.098C103.643 248.958 103.573 248.85 103.433 248.776C103.293 248.701 103.076 248.626 102.782 248.552C102.497 248.472 102.264 248.398 102.082 248.328C101.904 248.253 101.75 248.141 101.62 247.992C101.489 247.838 101.424 247.639 101.424 247.397C101.424 247.187 101.482 246.995 101.599 246.823C101.715 246.645 101.883 246.505 102.103 246.403C102.327 246.3 102.588 246.249 102.887 246.249C103.325 246.249 103.678 246.361 103.944 246.585C104.214 246.804 104.359 247.105 104.378 247.488H103.58C103.566 247.301 103.496 247.154 103.37 247.047C103.244 246.935 103.073 246.879 102.859 246.879C102.649 246.879 102.488 246.923 102.376 247.012C102.264 247.096 102.208 247.21 102.208 247.355C102.208 247.457 102.245 247.544 102.32 247.614C102.394 247.684 102.488 247.74 102.6 247.782C102.712 247.819 102.87 247.866 103.076 247.922C103.356 247.996 103.584 248.071 103.762 248.146C103.939 248.22 104.091 248.335 104.217 248.489C104.343 248.638 104.406 248.834 104.406 249.077C104.406 249.296 104.347 249.494 104.231 249.672C104.114 249.844 103.944 249.982 103.72 250.085C103.5 250.183 103.239 250.232 102.936 250.232ZM107.794 245.801C107.649 245.801 107.528 245.752 107.43 245.654C107.332 245.556 107.283 245.434 107.283 245.29C107.283 245.145 107.332 245.024 107.43 244.926C107.528 244.828 107.649 244.779 107.794 244.779C107.934 244.779 108.053 244.828 108.151 244.926C108.249 245.024 108.298 245.145 108.298 245.29C108.298 245.434 108.249 245.556 108.151 245.654C108.053 245.752 107.934 245.801 107.794 245.801ZM108.186 246.312V250.169H107.388V246.312H108.186ZM110.619 250.232C110.321 250.232 110.052 250.178 109.814 250.071C109.576 249.959 109.387 249.809 109.247 249.623C109.107 249.431 109.033 249.219 109.023 248.986H109.849C109.863 249.163 109.94 249.31 110.08 249.427C110.225 249.543 110.405 249.602 110.619 249.602C110.843 249.602 111.016 249.557 111.137 249.469C111.263 249.375 111.326 249.252 111.326 249.098C111.326 248.958 111.256 248.85 111.116 248.776C110.976 248.701 110.759 248.626 110.465 248.552C110.181 248.472 109.947 248.398 109.765 248.328C109.588 248.253 109.434 248.141 109.303 247.992C109.173 247.838 109.107 247.639 109.107 247.397C109.107 247.187 109.166 246.995 109.282 246.823C109.399 246.645 109.567 246.505 109.786 246.403C110.01 246.3 110.272 246.249 110.57 246.249C111.009 246.249 111.361 246.361 111.627 246.585C111.898 246.804 112.043 247.105 112.061 247.488H111.263C111.249 247.301 111.179 247.154 111.053 247.047C110.927 246.935 110.757 246.879 110.542 246.879C110.332 246.879 110.171 246.923 110.059 247.012C109.947 247.096 109.891 247.21 109.891 247.355C109.891 247.457 109.929 247.544 110.003 247.614C110.078 247.684 110.171 247.74 110.283 247.782C110.395 247.819 110.554 247.866 110.759 247.922C111.039 247.996 111.268 248.071 111.445 248.146C111.623 248.22 111.774 248.335 111.9 248.489C112.026 248.638 112.089 248.834 112.089 249.077C112.089 249.296 112.031 249.494 111.914 249.672C111.798 249.844 111.627 249.982 111.403 250.085C111.184 250.183 110.923 250.232 110.619 250.232ZM117.017 246.249C117.32 246.249 117.591 246.312 117.829 246.438C118.072 246.564 118.261 246.75 118.396 246.998C118.531 247.245 118.599 247.544 118.599 247.894V250.169H117.808V248.013C117.808 247.667 117.722 247.404 117.549 247.222C117.376 247.035 117.141 246.942 116.842 246.942C116.543 246.942 116.305 247.035 116.128 247.222C115.955 247.404 115.869 247.667 115.869 248.013V250.169H115.071V246.312H115.869V246.753C116 246.594 116.165 246.47 116.366 246.382C116.571 246.293 116.788 246.249 117.017 246.249ZM121.29 250.232C120.926 250.232 120.597 250.15 120.303 249.987C120.009 249.819 119.778 249.585 119.61 249.287C119.442 248.983 119.358 248.633 119.358 248.237C119.358 247.845 119.444 247.497 119.617 247.194C119.79 246.89 120.025 246.657 120.324 246.494C120.623 246.33 120.956 246.249 121.325 246.249C121.694 246.249 122.027 246.33 122.326 246.494C122.625 246.657 122.86 246.89 123.033 247.194C123.206 247.497 123.292 247.845 123.292 248.237C123.292 248.629 123.203 248.976 123.026 249.28C122.849 249.583 122.606 249.819 122.298 249.987C121.995 250.15 121.659 250.232 121.29 250.232ZM121.29 249.56C121.495 249.56 121.687 249.508 121.864 249.406C122.046 249.303 122.193 249.154 122.305 248.958C122.417 248.757 122.473 248.517 122.473 248.237C122.473 247.957 122.419 247.719 122.312 247.523C122.205 247.322 122.062 247.173 121.885 247.075C121.708 246.972 121.516 246.921 121.311 246.921C121.106 246.921 120.917 246.972 120.744 247.075C120.571 247.173 120.431 247.322 120.324 247.523C120.221 247.719 120.17 247.957 120.17 248.237C120.17 248.517 120.219 248.757 120.317 248.958C120.42 249.158 120.555 249.31 120.723 249.413C120.896 249.511 121.085 249.56 121.29 249.56ZM125.012 246.963V249.098C125.012 249.242 125.045 249.347 125.11 249.413C125.18 249.473 125.297 249.504 125.46 249.504H125.95V250.169H125.32C124.961 250.169 124.685 250.085 124.494 249.917C124.303 249.749 124.207 249.476 124.207 249.098V246.963H123.752V246.312H124.207V245.353H125.012V246.312H125.95V246.963H125.012ZM43.6362 259.223C43.6362 258.835 43.7155 258.492 43.8742 258.194C44.0375 257.895 44.2569 257.664 44.5322 257.501C44.8122 257.333 45.1202 257.249 45.4562 257.249C45.7595 257.249 46.0232 257.309 46.2472 257.431C46.4759 257.547 46.6579 257.694 46.7932 257.872V257.312H47.5982V261.169H46.7932V260.595C46.6579 260.777 46.4735 260.928 46.2402 261.05C46.0069 261.171 45.7409 261.232 45.4422 261.232C45.1109 261.232 44.8075 261.148 44.5322 260.98C44.2569 260.807 44.0375 260.569 43.8742 260.266C43.7155 259.958 43.6362 259.61 43.6362 259.223ZM46.7932 259.237C46.7932 258.971 46.7372 258.74 46.6252 258.544C46.5179 258.348 46.3755 258.198 46.1982 258.096C46.0209 257.993 45.8295 257.942 45.6242 257.942C45.4189 257.942 45.2275 257.993 45.0502 258.096C44.8729 258.194 44.7282 258.341 44.6162 258.537C44.5089 258.728 44.4552 258.957 44.4552 259.223C44.4552 259.489 44.5089 259.722 44.6162 259.923C44.7282 260.123 44.8729 260.277 45.0502 260.385C45.2322 260.487 45.4235 260.539 45.6242 260.539C45.8295 260.539 46.0209 260.487 46.1982 260.385C46.3755 260.282 46.5179 260.133 46.6252 259.937C46.7372 259.736 46.7932 259.503 46.7932 259.237ZM50.2633 257.963H49.5493V261.169H48.7443V257.963H48.2893V257.312H48.7443V257.039C48.7443 256.595 48.861 256.273 49.0943 256.073C49.3323 255.867 49.7033 255.765 50.2073 255.765V256.43C49.9647 256.43 49.7943 256.476 49.6963 256.57C49.5983 256.658 49.5493 256.815 49.5493 257.039V257.312H50.2633V257.963ZM52.5876 257.963H51.8736V261.169H51.0686V257.963H50.6136V257.312H51.0686V257.039C51.0686 256.595 51.1852 256.273 51.4186 256.073C51.6566 255.867 52.0276 255.765 52.5316 255.765V256.43C52.2889 256.43 52.1186 256.476 52.0206 256.57C51.9226 256.658 51.8736 256.815 51.8736 257.039V257.312H52.5876V257.963ZM56.8298 259.132C56.8298 259.267 56.8204 259.393 56.8018 259.51H53.8478C53.8711 259.832 53.9854 260.088 54.1908 260.28C54.3961 260.466 54.6504 260.56 54.9538 260.56C55.3831 260.56 55.6864 260.38 55.8638 260.021H56.7248C56.6081 260.375 56.3958 260.667 56.0878 260.896C55.7844 261.12 55.4064 261.232 54.9538 261.232C54.5851 261.232 54.2538 261.15 53.9598 260.987C53.6704 260.819 53.4418 260.585 53.2738 260.287C53.1104 259.983 53.0288 259.633 53.0288 259.237C53.0288 258.84 53.1081 258.492 53.2668 258.194C53.4301 257.89 53.6564 257.657 53.9458 257.494C54.2398 257.33 54.5758 257.249 54.9538 257.249C55.3178 257.249 55.6421 257.328 55.9268 257.487C56.2114 257.645 56.4331 257.867 56.5918 258.152C56.7504 258.436 56.8298 258.763 56.8298 259.132ZM55.9968 258.936C55.9921 258.623 55.8871 258.376 55.6818 258.194C55.4811 258.012 55.2268 257.921 54.9188 257.921C54.6388 257.921 54.3984 258.012 54.1978 258.194C54.0018 258.376 53.8874 258.623 53.8548 258.936H55.9968ZM57.3491 259.237C57.3491 258.84 57.4284 258.492 57.5871 258.194C57.7504 257.89 57.9744 257.657 58.2591 257.494C58.5438 257.33 58.8704 257.249 59.2391 257.249C59.7058 257.249 60.0908 257.361 60.3941 257.585C60.7021 257.804 60.9098 258.119 61.0171 258.53H60.1561C60.0861 258.338 59.9741 258.189 59.8201 258.082C59.6661 257.974 59.4724 257.921 59.2391 257.921C58.9124 257.921 58.6511 258.037 58.4551 258.271C58.2638 258.499 58.1681 258.821 58.1681 259.237C58.1681 259.652 58.2638 259.976 58.4551 260.21C58.6511 260.443 58.9124 260.56 59.2391 260.56C59.7011 260.56 60.0068 260.357 60.1561 259.951H61.0171C60.9051 260.343 60.6951 260.655 60.3871 260.889C60.0791 261.117 59.6964 261.232 59.2391 261.232C58.8704 261.232 58.5438 261.15 58.2591 260.987C57.9744 260.819 57.7504 260.585 57.5871 260.287C57.4284 259.983 57.3491 259.633 57.3491 259.237ZM62.7434 257.963V260.098C62.7434 260.242 62.776 260.347 62.8414 260.413C62.9114 260.473 63.028 260.504 63.1914 260.504H63.6814V261.169H63.0514C62.692 261.169 62.4167 261.085 62.2254 260.917C62.034 260.749 61.9384 260.476 61.9384 260.098V257.963H61.4834V257.312H61.9384V256.353H62.7434V257.312H63.6814V257.963H62.7434ZM67.9518 259.132C67.9518 259.267 67.9425 259.393 67.9238 259.51H64.9698C64.9932 259.832 65.1075 260.088 65.3128 260.28C65.5182 260.466 65.7725 260.56 66.0758 260.56C66.5052 260.56 66.8085 260.38 66.9858 260.021H67.8468C67.7302 260.375 67.5178 260.667 67.2098 260.896C66.9065 261.12 66.5285 261.232 66.0758 261.232C65.7072 261.232 65.3758 261.15 65.0818 260.987C64.7925 260.819 64.5638 260.585 64.3958 260.287C64.2325 259.983 64.1508 259.633 64.1508 259.237C64.1508 258.84 64.2302 258.492 64.3888 258.194C64.5522 257.89 64.7785 257.657 65.0678 257.494C65.3618 257.33 65.6978 257.249 66.0758 257.249C66.4398 257.249 66.7642 257.328 67.0488 257.487C67.3335 257.645 67.5552 257.867 67.7138 258.152C67.8725 258.436 67.9518 258.763 67.9518 259.132ZM67.1188 258.936C67.1142 258.623 67.0092 258.376 66.8038 258.194C66.6032 258.012 66.3488 257.921 66.0408 257.921C65.7608 257.921 65.5205 258.012 65.3198 258.194C65.1238 258.376 65.0095 258.623 64.9768 258.936H67.1188ZM68.4712 259.223C68.4712 258.835 68.5505 258.492 68.7092 258.194C68.8725 257.895 69.0918 257.664 69.3672 257.501C69.6472 257.333 69.9575 257.249 70.2982 257.249C70.5502 257.249 70.7975 257.305 71.0402 257.417C71.2875 257.524 71.4835 257.669 71.6282 257.851V255.989H72.4332V261.169H71.6282V260.588C71.4975 260.774 71.3155 260.928 71.0822 261.05C70.8535 261.171 70.5898 261.232 70.2912 261.232C69.9552 261.232 69.6472 261.148 69.3672 260.98C69.0918 260.807 68.8725 260.569 68.7092 260.266C68.5505 259.958 68.4712 259.61 68.4712 259.223ZM71.6282 259.237C71.6282 258.971 71.5722 258.74 71.4602 258.544C71.3528 258.348 71.2105 258.198 71.0332 258.096C70.8558 257.993 70.6645 257.942 70.4592 257.942C70.2538 257.942 70.0625 257.993 69.8852 258.096C69.7078 258.194 69.5632 258.341 69.4512 258.537C69.3438 258.728 69.2902 258.957 69.2902 259.223C69.2902 259.489 69.3438 259.722 69.4512 259.923C69.5632 260.123 69.7078 260.277 69.8852 260.385C70.0672 260.487 70.2585 260.539 70.4592 260.539C70.6645 260.539 70.8558 260.487 71.0332 260.385C71.2105 260.282 71.3528 260.133 71.4602 259.937C71.5722 259.736 71.6282 259.503 71.6282 259.237ZM73.8033 261.218C73.6586 261.218 73.5373 261.169 73.4393 261.071C73.3413 260.973 73.2923 260.851 73.2923 260.707C73.2923 260.562 73.3413 260.441 73.4393 260.343C73.5373 260.245 73.6586 260.196 73.8033 260.196C73.9433 260.196 74.0623 260.245 74.1603 260.343C74.2583 260.441 74.3073 260.562 74.3073 260.707C74.3073 260.851 74.2583 260.973 74.1603 261.071C74.0623 261.169 73.9433 261.218 73.8033 261.218Z" fill="#BDBDBD"/>
<path d="M47.8992 333.419H47.1012L44.7002 329.786V333.419H43.9022V328.547H44.7002L47.1012 332.173V328.547H47.8992V333.419ZM50.6201 333.482C50.2561 333.482 49.9271 333.4 49.6331 333.237C49.3391 333.069 49.1081 332.835 48.9401 332.537C48.7721 332.233 48.6881 331.883 48.6881 331.487C48.6881 331.095 48.7745 330.747 48.9471 330.444C49.1198 330.14 49.3555 329.907 49.6541 329.744C49.9528 329.58 50.2865 329.499 50.6551 329.499C51.0238 329.499 51.3575 329.58 51.6561 329.744C51.9548 329.907 52.1905 330.14 52.3631 330.444C52.5358 330.747 52.6221 331.095 52.6221 331.487C52.6221 331.879 52.5335 332.226 52.3561 332.53C52.1788 332.833 51.9361 333.069 51.6281 333.237C51.3248 333.4 50.9888 333.482 50.6201 333.482ZM50.6201 332.81C50.8255 332.81 51.0168 332.758 51.1941 332.656C51.3761 332.553 51.5231 332.404 51.6351 332.208C51.7471 332.007 51.8031 331.767 51.8031 331.487C51.8031 331.207 51.7495 330.969 51.6421 330.773C51.5348 330.572 51.3925 330.423 51.2151 330.325C51.0378 330.222 50.8465 330.171 50.6411 330.171C50.4358 330.171 50.2468 330.222 50.0741 330.325C49.9015 330.423 49.7615 330.572 49.6541 330.773C49.5515 330.969 49.5001 331.207 49.5001 331.487C49.5001 331.767 49.5491 332.007 49.6471 332.208C49.7498 332.408 49.8851 332.56 50.0531 332.663C50.2258 332.761 50.4148 332.81 50.6201 332.81ZM56.372 330.549V331.221H53.495V330.549H56.372ZM57.2397 331.487C57.2397 331.09 57.319 330.742 57.4777 330.444C57.641 330.14 57.865 329.907 58.1497 329.744C58.4344 329.58 58.761 329.499 59.1297 329.499C59.5964 329.499 59.9814 329.611 60.2847 329.835C60.5927 330.054 60.8004 330.369 60.9077 330.78H60.0467C59.9767 330.588 59.8647 330.439 59.7107 330.332C59.5567 330.224 59.363 330.171 59.1297 330.171C58.803 330.171 58.5417 330.287 58.3457 330.521C58.1544 330.749 58.0587 331.071 58.0587 331.487C58.0587 331.902 58.1544 332.226 58.3457 332.46C58.5417 332.693 58.803 332.81 59.1297 332.81C59.5917 332.81 59.8974 332.607 60.0467 332.201H60.9077C60.7957 332.593 60.5857 332.905 60.2777 333.139C59.9697 333.367 59.587 333.482 59.1297 333.482C58.761 333.482 58.4344 333.4 58.1497 333.237C57.865 333.069 57.641 332.835 57.4777 332.537C57.319 332.233 57.2397 331.883 57.2397 331.487ZM62.501 328.239V333.419H61.703V328.239H62.501ZM63.2827 331.473C63.2827 331.085 63.362 330.742 63.5207 330.444C63.684 330.145 63.9033 329.914 64.1787 329.751C64.4587 329.583 64.7667 329.499 65.1027 329.499C65.406 329.499 65.6697 329.559 65.8937 329.681C66.1223 329.797 66.3043 329.944 66.4397 330.122V329.562H67.2447V333.419H66.4397V332.845C66.3043 333.027 66.12 333.178 65.8867 333.3C65.6533 333.421 65.3873 333.482 65.0887 333.482C64.7573 333.482 64.454 333.398 64.1787 333.23C63.9033 333.057 63.684 332.819 63.5207 332.516C63.362 332.208 63.2827 331.86 63.2827 331.473ZM66.4397 331.487C66.4397 331.221 66.3837 330.99 66.2717 330.794C66.1643 330.598 66.022 330.448 65.8447 330.346C65.6673 330.243 65.476 330.192 65.2707 330.192C65.0653 330.192 64.874 330.243 64.6967 330.346C64.5193 330.444 64.3747 330.591 64.2627 330.787C64.1553 330.978 64.1017 331.207 64.1017 331.473C64.1017 331.739 64.1553 331.972 64.2627 332.173C64.3747 332.373 64.5193 332.527 64.6967 332.635C64.8787 332.737 65.07 332.789 65.2707 332.789C65.476 332.789 65.6673 332.737 65.8447 332.635C66.022 332.532 66.1643 332.383 66.2717 332.187C66.3837 331.986 66.4397 331.753 66.4397 331.487ZM68.6988 329.051C68.5542 329.051 68.4328 329.002 68.3348 328.904C68.2368 328.806 68.1878 328.684 68.1878 328.54C68.1878 328.395 68.2368 328.274 68.3348 328.176C68.4328 328.078 68.5542 328.029 68.6988 328.029C68.8388 328.029 68.9578 328.078 69.0558 328.176C69.1538 328.274 69.2028 328.395 69.2028 328.54C69.2028 328.684 69.1538 328.806 69.0558 328.904C68.9578 329.002 68.8388 329.051 68.6988 329.051ZM69.0908 329.562V333.419H68.2928V329.562H69.0908ZM74.8075 329.499C75.1109 329.499 75.3815 329.562 75.6195 329.688C75.8622 329.814 76.0512 330 76.1865 330.248C76.3265 330.495 76.3965 330.794 76.3965 331.144V333.419H75.6055V331.263C75.6055 330.917 75.5192 330.654 75.3465 330.472C75.1739 330.285 74.9382 330.192 74.6395 330.192C74.3409 330.192 74.1029 330.285 73.9255 330.472C73.7529 330.654 73.6665 330.917 73.6665 331.263V333.419H72.8755V331.263C72.8755 330.917 72.7892 330.654 72.6165 330.472C72.4439 330.285 72.2082 330.192 71.9095 330.192C71.6109 330.192 71.3729 330.285 71.1955 330.472C71.0229 330.654 70.9365 330.917 70.9365 331.263V333.419H70.1385V329.562H70.9365V330.003C71.0672 329.844 71.2329 329.72 71.4335 329.632C71.6342 329.543 71.8489 329.499 72.0775 329.499C72.3855 329.499 72.6609 329.564 72.9035 329.695C73.1462 329.825 73.3329 330.014 73.4635 330.262C73.5802 330.028 73.7622 329.844 74.0095 329.709C74.2569 329.569 74.5229 329.499 74.8075 329.499ZM78.798 333.482C78.4993 333.482 78.231 333.428 77.993 333.321C77.755 333.209 77.566 333.059 77.426 332.873C77.286 332.681 77.2113 332.469 77.202 332.236H78.028C78.042 332.413 78.119 332.56 78.259 332.677C78.4036 332.793 78.5833 332.852 78.798 332.852C79.022 332.852 79.1946 332.807 79.316 332.719C79.442 332.625 79.505 332.502 79.505 332.348C79.505 332.208 79.435 332.1 79.295 332.026C79.155 331.951 78.938 331.876 78.644 331.802C78.3593 331.722 78.126 331.648 77.944 331.578C77.7666 331.503 77.6126 331.391 77.482 331.242C77.3513 331.088 77.286 330.889 77.286 330.647C77.286 330.437 77.3443 330.245 77.461 330.073C77.5776 329.895 77.7456 329.755 77.965 329.653C78.189 329.55 78.4503 329.499 78.749 329.499C79.1876 329.499 79.54 329.611 79.806 329.835C80.0766 330.054 80.2213 330.355 80.24 330.738H79.442C79.428 330.551 79.358 330.404 79.232 330.297C79.106 330.185 78.9356 330.129 78.721 330.129C78.511 330.129 78.35 330.173 78.238 330.262C78.126 330.346 78.07 330.46 78.07 330.605C78.07 330.707 78.1073 330.794 78.182 330.864C78.2566 330.934 78.35 330.99 78.462 331.032C78.574 331.069 78.7326 331.116 78.938 331.172C79.218 331.246 79.4466 331.321 79.624 331.396C79.8013 331.47 79.953 331.585 80.079 331.739C80.205 331.888 80.268 332.084 80.268 332.327C80.268 332.546 80.2096 332.744 80.093 332.922C79.9763 333.094 79.806 333.232 79.582 333.335C79.3626 333.433 79.1013 333.482 78.798 333.482ZM84.0479 330.136C84.1832 329.949 84.3675 329.797 84.6009 329.681C84.8389 329.559 85.1025 329.499 85.3919 329.499C85.7325 329.499 86.0405 329.58 86.3159 329.744C86.5912 329.907 86.8082 330.14 86.9669 330.444C87.1255 330.742 87.2049 331.085 87.2049 331.473C87.2049 331.86 87.1255 332.208 86.9669 332.516C86.8082 332.819 86.5889 333.057 86.3089 333.23C86.0335 333.398 85.7279 333.482 85.3919 333.482C85.0932 333.482 84.8272 333.423 84.5939 333.307C84.3652 333.19 84.1832 333.041 84.0479 332.859V333.419H83.2499V328.239H84.0479V330.136ZM86.3929 331.473C86.3929 331.207 86.3369 330.978 86.2249 330.787C86.1175 330.591 85.9729 330.444 85.7909 330.346C85.6135 330.243 85.4222 330.192 85.2169 330.192C85.0162 330.192 84.8249 330.243 84.6429 330.346C84.4655 330.448 84.3209 330.598 84.2089 330.794C84.1015 330.99 84.0479 331.221 84.0479 331.487C84.0479 331.753 84.1015 331.986 84.2089 332.187C84.3209 332.383 84.4655 332.532 84.6429 332.635C84.8249 332.737 85.0162 332.789 85.2169 332.789C85.4222 332.789 85.6135 332.737 85.7909 332.635C85.9729 332.527 86.1175 332.373 86.2249 332.173C86.3369 331.972 86.3929 331.739 86.3929 331.473ZM89.667 333.482C89.303 333.482 88.974 333.4 88.68 333.237C88.386 333.069 88.155 332.835 87.987 332.537C87.819 332.233 87.735 331.883 87.735 331.487C87.735 331.095 87.8213 330.747 87.994 330.444C88.1667 330.14 88.4023 329.907 88.701 329.744C88.9997 329.58 89.3333 329.499 89.702 329.499C90.0707 329.499 90.4043 329.58 90.703 329.744C91.0017 329.907 91.2373 330.14 91.41 330.444C91.5827 330.747 91.669 331.095 91.669 331.487C91.669 331.879 91.5803 332.226 91.403 332.53C91.2257 332.833 90.983 333.069 90.675 333.237C90.3717 333.4 90.0357 333.482 89.667 333.482ZM89.667 332.81C89.8723 332.81 90.0637 332.758 90.241 332.656C90.423 332.553 90.57 332.404 90.682 332.208C90.794 332.007 90.85 331.767 90.85 331.487C90.85 331.207 90.7963 330.969 90.689 330.773C90.5817 330.572 90.4393 330.423 90.262 330.325C90.0847 330.222 89.8933 330.171 89.688 330.171C89.4827 330.171 89.2937 330.222 89.121 330.325C88.9483 330.423 88.8083 330.572 88.701 330.773C88.5983 330.969 88.547 331.207 88.547 331.487C88.547 331.767 88.596 332.007 88.694 332.208C88.7967 332.408 88.932 332.56 89.1 332.663C89.2727 332.761 89.4617 332.81 89.667 332.81ZM94.4039 329.499C94.7072 329.499 94.9779 329.562 95.2159 329.688C95.4585 329.814 95.6475 330 95.7829 330.248C95.9182 330.495 95.9859 330.794 95.9859 331.144V333.419H95.1949V331.263C95.1949 330.917 95.1085 330.654 94.9359 330.472C94.7632 330.285 94.5275 330.192 94.2289 330.192C93.9302 330.192 93.6922 330.285 93.5149 330.472C93.3422 330.654 93.2559 330.917 93.2559 331.263V333.419H92.4579V329.562H93.2559V330.003C93.3865 329.844 93.5522 329.72 93.7529 329.632C93.9582 329.543 94.1752 329.499 94.4039 329.499ZM100.497 329.562V333.419H99.6988V332.964C99.5728 333.122 99.4071 333.248 99.2018 333.342C99.0011 333.43 98.7864 333.475 98.5578 333.475C98.2544 333.475 97.9814 333.412 97.7388 333.286C97.5008 333.16 97.3118 332.973 97.1718 332.726C97.0364 332.478 96.9688 332.18 96.9688 331.83V329.562H97.7598V331.711C97.7598 332.056 97.8461 332.322 98.0188 332.509C98.1914 332.691 98.4271 332.782 98.7258 332.782C99.0244 332.782 99.2601 332.691 99.4328 332.509C99.6101 332.322 99.6988 332.056 99.6988 331.711V329.562H100.497ZM102.936 333.482C102.637 333.482 102.369 333.428 102.131 333.321C101.893 333.209 101.704 333.059 101.564 332.873C101.424 332.681 101.349 332.469 101.34 332.236H102.166C102.18 332.413 102.257 332.56 102.397 332.677C102.541 332.793 102.721 332.852 102.936 332.852C103.16 332.852 103.332 332.807 103.454 332.719C103.58 332.625 103.643 332.502 103.643 332.348C103.643 332.208 103.573 332.1 103.433 332.026C103.293 331.951 103.076 331.876 102.782 331.802C102.497 331.722 102.264 331.648 102.082 331.578C101.904 331.503 101.75 331.391 101.62 331.242C101.489 331.088 101.424 330.889 101.424 330.647C101.424 330.437 101.482 330.245 101.599 330.073C101.715 329.895 101.883 329.755 102.103 329.653C102.327 329.55 102.588 329.499 102.887 329.499C103.325 329.499 103.678 329.611 103.944 329.835C104.214 330.054 104.359 330.355 104.378 330.738H103.58C103.566 330.551 103.496 330.404 103.37 330.297C103.244 330.185 103.073 330.129 102.859 330.129C102.649 330.129 102.488 330.173 102.376 330.262C102.264 330.346 102.208 330.46 102.208 330.605C102.208 330.707 102.245 330.794 102.32 330.864C102.394 330.934 102.488 330.99 102.6 331.032C102.712 331.069 102.87 331.116 103.076 331.172C103.356 331.246 103.584 331.321 103.762 331.396C103.939 331.47 104.091 331.585 104.217 331.739C104.343 331.888 104.406 332.084 104.406 332.327C104.406 332.546 104.347 332.744 104.231 332.922C104.114 333.094 103.944 333.232 103.72 333.335C103.5 333.433 103.239 333.482 102.936 333.482ZM107.794 329.051C107.649 329.051 107.528 329.002 107.43 328.904C107.332 328.806 107.283 328.684 107.283 328.54C107.283 328.395 107.332 328.274 107.43 328.176C107.528 328.078 107.649 328.029 107.794 328.029C107.934 328.029 108.053 328.078 108.151 328.176C108.249 328.274 108.298 328.395 108.298 328.54C108.298 328.684 108.249 328.806 108.151 328.904C108.053 329.002 107.934 329.051 107.794 329.051ZM108.186 329.562V333.419H107.388V329.562H108.186ZM110.619 333.482C110.321 333.482 110.052 333.428 109.814 333.321C109.576 333.209 109.387 333.059 109.247 332.873C109.107 332.681 109.033 332.469 109.023 332.236H109.849C109.863 332.413 109.94 332.56 110.08 332.677C110.225 332.793 110.405 332.852 110.619 332.852C110.843 332.852 111.016 332.807 111.137 332.719C111.263 332.625 111.326 332.502 111.326 332.348C111.326 332.208 111.256 332.1 111.116 332.026C110.976 331.951 110.759 331.876 110.465 331.802C110.181 331.722 109.947 331.648 109.765 331.578C109.588 331.503 109.434 331.391 109.303 331.242C109.173 331.088 109.107 330.889 109.107 330.647C109.107 330.437 109.166 330.245 109.282 330.073C109.399 329.895 109.567 329.755 109.786 329.653C110.01 329.55 110.272 329.499 110.57 329.499C111.009 329.499 111.361 329.611 111.627 329.835C111.898 330.054 112.043 330.355 112.061 330.738H111.263C111.249 330.551 111.179 330.404 111.053 330.297C110.927 330.185 110.757 330.129 110.542 330.129C110.332 330.129 110.171 330.173 110.059 330.262C109.947 330.346 109.891 330.46 109.891 330.605C109.891 330.707 109.929 330.794 110.003 330.864C110.078 330.934 110.171 330.99 110.283 331.032C110.395 331.069 110.554 331.116 110.759 331.172C111.039 331.246 111.268 331.321 111.445 331.396C111.623 331.47 111.774 331.585 111.9 331.739C112.026 331.888 112.089 332.084 112.089 332.327C112.089 332.546 112.031 332.744 111.914 332.922C111.798 333.094 111.627 333.232 111.403 333.335C111.184 333.433 110.923 333.482 110.619 333.482ZM117.017 329.499C117.32 329.499 117.591 329.562 117.829 329.688C118.072 329.814 118.261 330 118.396 330.248C118.531 330.495 118.599 330.794 118.599 331.144V333.419H117.808V331.263C117.808 330.917 117.722 330.654 117.549 330.472C117.376 330.285 117.141 330.192 116.842 330.192C116.543 330.192 116.305 330.285 116.128 330.472C115.955 330.654 115.869 330.917 115.869 331.263V333.419H115.071V329.562H115.869V330.003C116 329.844 116.165 329.72 116.366 329.632C116.571 329.543 116.788 329.499 117.017 329.499ZM121.29 333.482C120.926 333.482 120.597 333.4 120.303 333.237C120.009 333.069 119.778 332.835 119.61 332.537C119.442 332.233 119.358 331.883 119.358 331.487C119.358 331.095 119.444 330.747 119.617 330.444C119.79 330.14 120.025 329.907 120.324 329.744C120.623 329.58 120.956 329.499 121.325 329.499C121.694 329.499 122.027 329.58 122.326 329.744C122.625 329.907 122.86 330.14 123.033 330.444C123.206 330.747 123.292 331.095 123.292 331.487C123.292 331.879 123.203 332.226 123.026 332.53C122.849 332.833 122.606 333.069 122.298 333.237C121.995 333.4 121.659 333.482 121.29 333.482ZM121.29 332.81C121.495 332.81 121.687 332.758 121.864 332.656C122.046 332.553 122.193 332.404 122.305 332.208C122.417 332.007 122.473 331.767 122.473 331.487C122.473 331.207 122.419 330.969 122.312 330.773C122.205 330.572 122.062 330.423 121.885 330.325C121.708 330.222 121.516 330.171 121.311 330.171C121.106 330.171 120.917 330.222 120.744 330.325C120.571 330.423 120.431 330.572 120.324 330.773C120.221 330.969 120.17 331.207 120.17 331.487C120.17 331.767 120.219 332.007 120.317 332.208C120.42 332.408 120.555 332.56 120.723 332.663C120.896 332.761 121.085 332.81 121.29 332.81ZM125.012 330.213V332.348C125.012 332.492 125.045 332.597 125.11 332.663C125.18 332.723 125.297 332.754 125.46 332.754H125.95V333.419H125.32C124.961 333.419 124.685 333.335 124.494 333.167C124.303 332.999 124.207 332.726 124.207 332.348V330.213H123.752V329.562H124.207V328.603H125.012V329.562H125.95V330.213H125.012ZM43.6362 342.473C43.6362 342.085 43.7155 341.742 43.8742 341.444C44.0375 341.145 44.2569 340.914 44.5322 340.751C44.8122 340.583 45.1202 340.499 45.4562 340.499C45.7595 340.499 46.0232 340.559 46.2472 340.681C46.4759 340.797 46.6579 340.944 46.7932 341.122V340.562H47.5982V344.419H46.7932V343.845C46.6579 344.027 46.4735 344.178 46.2402 344.3C46.0069 344.421 45.7409 344.482 45.4422 344.482C45.1109 344.482 44.8075 344.398 44.5322 344.23C44.2569 344.057 44.0375 343.819 43.8742 343.516C43.7155 343.208 43.6362 342.86 43.6362 342.473ZM46.7932 342.487C46.7932 342.221 46.7372 341.99 46.6252 341.794C46.5179 341.598 46.3755 341.448 46.1982 341.346C46.0209 341.243 45.8295 341.192 45.6242 341.192C45.4189 341.192 45.2275 341.243 45.0502 341.346C44.8729 341.444 44.7282 341.591 44.6162 341.787C44.5089 341.978 44.4552 342.207 44.4552 342.473C44.4552 342.739 44.5089 342.972 44.6162 343.173C44.7282 343.373 44.8729 343.527 45.0502 343.635C45.2322 343.737 45.4235 343.789 45.6242 343.789C45.8295 343.789 46.0209 343.737 46.1982 343.635C46.3755 343.532 46.5179 343.383 46.6252 343.187C46.7372 342.986 46.7932 342.753 46.7932 342.487ZM50.2633 341.213H49.5493V344.419H48.7443V341.213H48.2893V340.562H48.7443V340.289C48.7443 339.845 48.861 339.523 49.0943 339.323C49.3323 339.117 49.7033 339.015 50.2073 339.015V339.68C49.9647 339.68 49.7943 339.726 49.6963 339.82C49.5983 339.908 49.5493 340.065 49.5493 340.289V340.562H50.2633V341.213ZM52.5876 341.213H51.8736V344.419H51.0686V341.213H50.6136V340.562H51.0686V340.289C51.0686 339.845 51.1852 339.523 51.4186 339.323C51.6566 339.117 52.0276 339.015 52.5316 339.015V339.68C52.2889 339.68 52.1186 339.726 52.0206 339.82C51.9226 339.908 51.8736 340.065 51.8736 340.289V340.562H52.5876V341.213ZM56.8298 342.382C56.8298 342.517 56.8204 342.643 56.8018 342.76H53.8478C53.8711 343.082 53.9854 343.338 54.1908 343.53C54.3961 343.716 54.6504 343.81 54.9538 343.81C55.3831 343.81 55.6864 343.63 55.8638 343.271H56.7248C56.6081 343.625 56.3958 343.917 56.0878 344.146C55.7844 344.37 55.4064 344.482 54.9538 344.482C54.5851 344.482 54.2538 344.4 53.9598 344.237C53.6704 344.069 53.4418 343.835 53.2738 343.537C53.1104 343.233 53.0288 342.883 53.0288 342.487C53.0288 342.09 53.1081 341.742 53.2668 341.444C53.4301 341.14 53.6564 340.907 53.9458 340.744C54.2398 340.58 54.5758 340.499 54.9538 340.499C55.3178 340.499 55.6421 340.578 55.9268 340.737C56.2114 340.895 56.4331 341.117 56.5918 341.402C56.7504 341.686 56.8298 342.013 56.8298 342.382ZM55.9968 342.186C55.9921 341.873 55.8871 341.626 55.6818 341.444C55.4811 341.262 55.2268 341.171 54.9188 341.171C54.6388 341.171 54.3984 341.262 54.1978 341.444C54.0018 341.626 53.8874 341.873 53.8548 342.186H55.9968ZM57.3491 342.487C57.3491 342.09 57.4284 341.742 57.5871 341.444C57.7504 341.14 57.9744 340.907 58.2591 340.744C58.5438 340.58 58.8704 340.499 59.2391 340.499C59.7058 340.499 60.0908 340.611 60.3941 340.835C60.7021 341.054 60.9098 341.369 61.0171 341.78H60.1561C60.0861 341.588 59.9741 341.439 59.8201 341.332C59.6661 341.224 59.4724 341.171 59.2391 341.171C58.9124 341.171 58.6511 341.287 58.4551 341.521C58.2638 341.749 58.1681 342.071 58.1681 342.487C58.1681 342.902 58.2638 343.226 58.4551 343.46C58.6511 343.693 58.9124 343.81 59.2391 343.81C59.7011 343.81 60.0068 343.607 60.1561 343.201H61.0171C60.9051 343.593 60.6951 343.905 60.3871 344.139C60.0791 344.367 59.6964 344.482 59.2391 344.482C58.8704 344.482 58.5438 344.4 58.2591 344.237C57.9744 344.069 57.7504 343.835 57.5871 343.537C57.4284 343.233 57.3491 342.883 57.3491 342.487ZM62.7434 341.213V343.348C62.7434 343.492 62.776 343.597 62.8414 343.663C62.9114 343.723 63.028 343.754 63.1914 343.754H63.6814V344.419H63.0514C62.692 344.419 62.4167 344.335 62.2254 344.167C62.034 343.999 61.9384 343.726 61.9384 343.348V341.213H61.4834V340.562H61.9384V339.603H62.7434V340.562H63.6814V341.213H62.7434ZM67.9518 342.382C67.9518 342.517 67.9425 342.643 67.9238 342.76H64.9698C64.9932 343.082 65.1075 343.338 65.3128 343.53C65.5182 343.716 65.7725 343.81 66.0758 343.81C66.5052 343.81 66.8085 343.63 66.9858 343.271H67.8468C67.7302 343.625 67.5178 343.917 67.2098 344.146C66.9065 344.37 66.5285 344.482 66.0758 344.482C65.7072 344.482 65.3758 344.4 65.0818 344.237C64.7925 344.069 64.5638 343.835 64.3958 343.537C64.2325 343.233 64.1508 342.883 64.1508 342.487C64.1508 342.09 64.2302 341.742 64.3888 341.444C64.5522 341.14 64.7785 340.907 65.0678 340.744C65.3618 340.58 65.6978 340.499 66.0758 340.499C66.4398 340.499 66.7642 340.578 67.0488 340.737C67.3335 340.895 67.5552 341.117 67.7138 341.402C67.8725 341.686 67.9518 342.013 67.9518 342.382ZM67.1188 342.186C67.1142 341.873 67.0092 341.626 66.8038 341.444C66.6032 341.262 66.3488 341.171 66.0408 341.171C65.7608 341.171 65.5205 341.262 65.3198 341.444C65.1238 341.626 65.0095 341.873 64.9768 342.186H67.1188ZM68.4712 342.473C68.4712 342.085 68.5505 341.742 68.7092 341.444C68.8725 341.145 69.0918 340.914 69.3672 340.751C69.6472 340.583 69.9575 340.499 70.2982 340.499C70.5502 340.499 70.7975 340.555 71.0402 340.667C71.2875 340.774 71.4835 340.919 71.6282 341.101V339.239H72.4332V344.419H71.6282V343.838C71.4975 344.024 71.3155 344.178 71.0822 344.3C70.8535 344.421 70.5898 344.482 70.2912 344.482C69.9552 344.482 69.6472 344.398 69.3672 344.23C69.0918 344.057 68.8725 343.819 68.7092 343.516C68.5505 343.208 68.4712 342.86 68.4712 342.473ZM71.6282 342.487C71.6282 342.221 71.5722 341.99 71.4602 341.794C71.3528 341.598 71.2105 341.448 71.0332 341.346C70.8558 341.243 70.6645 341.192 70.4592 341.192C70.2538 341.192 70.0625 341.243 69.8852 341.346C69.7078 341.444 69.5632 341.591 69.4512 341.787C69.3438 341.978 69.2902 342.207 69.2902 342.473C69.2902 342.739 69.3438 342.972 69.4512 343.173C69.5632 343.373 69.7078 343.527 69.8852 343.635C70.0672 343.737 70.2585 343.789 70.4592 343.789C70.6645 343.789 70.8558 343.737 71.0332 343.635C71.2105 343.532 71.3528 343.383 71.4602 343.187C71.5722 342.986 71.6282 342.753 71.6282 342.487ZM73.8033 344.468C73.6586 344.468 73.5373 344.419 73.4393 344.321C73.3413 344.223 73.2923 344.101 73.2923 343.957C73.2923 343.812 73.3413 343.691 73.4393 343.593C73.5373 343.495 73.6586 343.446 73.8033 343.446C73.9433 343.446 74.0623 343.495 74.1603 343.593C74.2583 343.691 74.3073 343.812 74.3073 343.957C74.3073 344.101 74.2583 344.223 74.1603 344.321C74.0623 344.419 73.9433 344.468 73.8033 344.468Z" fill="#BDBDBD"/>
<path d="M54.7598 292.66L52.2878 301H50.7398L48.9878 294.688L47.1278 301L45.5918 301.012L43.2278 292.66H44.6798L46.4078 299.452L48.2798 292.66H49.8158L51.5558 299.416L53.2958 292.66H54.7598ZM61.948 297.508C61.948 297.74 61.932 297.956 61.9 298.156H56.836C56.876 298.708 57.072 299.148 57.424 299.476C57.776 299.796 58.212 299.956 58.732 299.956C59.468 299.956 59.988 299.648 60.292 299.032H61.768C61.568 299.64 61.204 300.14 60.676 300.532C60.156 300.916 59.508 301.108 58.732 301.108C58.1 301.108 57.532 300.968 57.028 300.688C56.532 300.4 56.14 300 55.852 299.488C55.572 298.968 55.432 298.368 55.432 297.688C55.432 297.008 55.568 296.412 55.84 295.9C56.12 295.38 56.508 294.98 57.004 294.7C57.508 294.42 58.084 294.28 58.732 294.28C59.356 294.28 59.912 294.416 60.4 294.688C60.888 294.96 61.268 295.34 61.54 295.828C61.812 296.316 61.948 296.876 61.948 297.508ZM60.52 297.172C60.512 296.636 60.332 296.212 59.98 295.9C59.636 295.588 59.2 295.432 58.672 295.432C58.192 295.432 57.78 295.588 57.436 295.9C57.1 296.212 56.904 296.636 56.848 297.172H60.52ZM69.3543 297.508C69.3543 297.74 69.3383 297.956 69.3063 298.156H64.2423C64.2823 298.708 64.4783 299.148 64.8303 299.476C65.1823 299.796 65.6183 299.956 66.1383 299.956C66.8743 299.956 67.3943 299.648 67.6983 299.032H69.1743C68.9743 299.64 68.6103 300.14 68.0823 300.532C67.5623 300.916 66.9143 301.108 66.1383 301.108C65.5063 301.108 64.9383 300.968 64.4343 300.688C63.9383 300.4 63.5463 300 63.2583 299.488C62.9783 298.968 62.8383 298.368 62.8383 297.688C62.8383 297.008 62.9743 296.412 63.2463 295.9C63.5263 295.38 63.9143 294.98 64.4103 294.7C64.9143 294.42 65.4903 294.28 66.1383 294.28C66.7623 294.28 67.3183 294.416 67.8063 294.688C68.2943 294.96 68.6743 295.34 68.9463 295.828C69.2183 296.316 69.3543 296.876 69.3543 297.508ZM67.9263 297.172C67.9183 296.636 67.7383 296.212 67.3863 295.9C67.0423 295.588 66.6063 295.432 66.0783 295.432C65.5983 295.432 65.1863 295.588 64.8423 295.9C64.5063 296.212 64.3103 296.636 64.2543 297.172H67.9263ZM73.3165 297.7L76.3645 301H74.5165L72.0685 298.156V301H70.7005V292.12H72.0685V297.28L74.4685 294.388H76.3645L73.3165 297.7ZM78.7131 292.12V301H77.3451V292.12H78.7131ZM81.2531 294.388L83.1131 299.428L85.0451 294.388H86.4611L82.4051 304.108H80.9891L82.3331 300.892L79.7291 294.388H81.2531ZM96.9232 295.144C96.9232 295.568 96.8232 295.968 96.6232 296.344C96.4232 296.72 96.1032 297.028 95.6632 297.268C95.2232 297.5 94.6592 297.616 93.9712 297.616H92.4592V301H91.0912V292.66H93.9712C94.6112 292.66 95.1512 292.772 95.5912 292.996C96.0392 293.212 96.3712 293.508 96.5872 293.884C96.8112 294.26 96.9232 294.68 96.9232 295.144ZM93.9712 296.548C94.4912 296.548 94.8792 296.424 95.1352 296.176C95.3912 295.928 95.5192 295.584 95.5192 295.144C95.5192 294.696 95.3912 294.348 95.1352 294.1C94.8792 293.852 94.4912 293.728 93.9712 293.728H92.4592V296.548H93.9712ZM99.5959 292.12V301H98.2279V292.12H99.5959ZM100.936 297.664C100.936 297 101.072 296.412 101.344 295.9C101.624 295.388 102 294.992 102.472 294.712C102.952 294.424 103.48 294.28 104.056 294.28C104.576 294.28 105.028 294.384 105.412 294.592C105.804 294.792 106.116 295.044 106.348 295.348V294.388H107.728V301H106.348V300.016C106.116 300.328 105.8 300.588 105.4 300.796C105 301.004 104.544 301.108 104.032 301.108C103.464 301.108 102.944 300.964 102.472 300.676C102 300.38 101.624 299.972 101.344 299.452C101.072 298.924 100.936 298.328 100.936 297.664ZM106.348 297.688C106.348 297.232 106.252 296.836 106.06 296.5C105.876 296.164 105.632 295.908 105.328 295.732C105.024 295.556 104.696 295.468 104.344 295.468C103.992 295.468 103.664 295.556 103.36 295.732C103.056 295.9 102.808 296.152 102.616 296.488C102.432 296.816 102.34 297.208 102.34 297.664C102.34 298.12 102.432 298.52 102.616 298.864C102.808 299.208 103.056 299.472 103.36 299.656C103.672 299.832 104 299.92 104.344 299.92C104.696 299.92 105.024 299.832 105.328 299.656C105.632 299.48 105.876 299.224 106.06 298.888C106.252 298.544 106.348 298.144 106.348 297.688ZM112.861 294.28C113.381 294.28 113.845 294.388 114.253 294.604C114.669 294.82 114.993 295.14 115.225 295.564C115.457 295.988 115.573 296.5 115.573 297.1V301H114.217V297.304C114.217 296.712 114.069 296.26 113.773 295.948C113.477 295.628 113.073 295.468 112.561 295.468C112.049 295.468 111.641 295.628 111.337 295.948C111.041 296.26 110.893 296.712 110.893 297.304V301H109.525V294.388H110.893V295.144C111.117 294.872 111.401 294.66 111.745 294.508C112.097 294.356 112.469 294.28 112.861 294.28Z" fill="#4F4F4F"/>
<path d="M44.4319 315.181V314.197H43.4944V313.429H44.4319V310.464H45.6799C45.7151 310.523 45.7834 310.683 45.885 310.945C45.9866 311.207 46.2991 312.035 46.8225 313.429H48.2346V310.464H49.1838V313.429H50.1213V314.197H49.1838V315.181H50.1213V315.949H49.1838V319.031H47.9241L46.7874 315.949H45.3694V319.031H44.4319V315.949H43.4944V315.181H44.4319ZM48.2346 314.197H47.0979L47.4553 315.181H48.2346V314.197ZM45.3694 315.181H46.4944L46.137 314.197H45.3694V315.181ZM45.2756 311.976C45.3108 312.55 45.3342 313.035 45.3459 313.429H45.8499L45.3225 311.976H45.2756ZM48.3225 317.255L48.2463 315.949H47.7424C48.0198 316.695 48.1975 317.13 48.2756 317.255H48.3225ZM51.7444 317.147C52.5124 316.491 53.1164 315.951 53.5564 315.527C53.9964 315.103 54.3604 314.667 54.6484 314.219C54.9444 313.763 55.0924 313.315 55.0924 312.875C55.0924 312.419 54.9764 312.059 54.7444 311.795C54.5204 311.531 54.1644 311.399 53.6764 311.399C53.2044 311.399 52.8364 311.551 52.5724 311.855C52.3164 312.151 52.1804 312.551 52.1644 313.055H50.8444C50.8684 312.143 51.1404 311.447 51.6604 310.967C52.1884 310.479 52.8564 310.235 53.6644 310.235C54.2484 310.235 54.7484 310.343 55.1644 310.559C55.5804 310.775 55.8964 311.079 56.1124 311.471C56.3364 311.863 56.4484 312.311 56.4484 312.815C56.4484 313.367 56.3004 313.903 56.0044 314.423C55.7164 314.943 55.3724 315.411 54.9724 315.827C54.5724 316.243 54.0604 316.727 53.4364 317.279L52.8844 317.771H56.6884V318.911H50.8564V317.915L51.7444 317.147ZM59.5702 317.387L58.1182 320.699H57.2302L58.0822 317.387H59.5702ZM63.7055 310.283C62.5615 310.283 61.7535 310.671 61.2815 311.447C60.8175 312.223 60.5855 313.287 60.5855 314.639C60.5855 315.999 60.8175 317.067 61.2815 317.843C61.7535 318.619 62.5615 319.007 63.7055 319.007C64.8495 319.007 65.6535 318.619 66.1175 317.843C66.5895 317.067 66.8255 315.999 66.8255 314.639C66.8255 313.287 66.5895 312.223 66.1175 311.447C65.6535 310.671 64.8495 310.283 63.7055 310.283ZM63.7055 311.531C64.2095 311.531 64.5895 311.671 64.8455 311.951C65.1015 312.231 65.2695 312.591 65.3495 313.031C65.4375 313.471 65.4815 314.007 65.4815 314.639C65.4815 315.279 65.4375 315.819 65.3495 316.259C65.2695 316.699 65.1015 317.059 64.8455 317.339C64.5895 317.619 64.2095 317.759 63.7055 317.759C63.2015 317.759 62.8215 317.619 62.5655 317.339C62.3095 317.059 62.1375 316.699 62.0495 316.259C61.9695 315.819 61.9295 315.279 61.9295 314.639C61.9295 314.007 61.9695 313.471 62.0495 313.031C62.1375 312.591 62.3095 312.231 62.5655 311.951C62.8215 311.671 63.2015 311.531 63.7055 311.531ZM71.393 310.283C70.249 310.283 69.441 310.671 68.969 311.447C68.505 312.223 68.273 313.287 68.273 314.639C68.273 315.999 68.505 317.067 68.969 317.843C69.441 318.619 70.249 319.007 71.393 319.007C72.537 319.007 73.341 318.619 73.805 317.843C74.277 317.067 74.513 315.999 74.513 314.639C74.513 313.287 74.277 312.223 73.805 311.447C73.341 310.671 72.537 310.283 71.393 310.283ZM71.393 311.531C71.897 311.531 72.277 311.671 72.533 311.951C72.789 312.231 72.957 312.591 73.037 313.031C73.125 313.471 73.169 314.007 73.169 314.639C73.169 315.279 73.125 315.819 73.037 316.259C72.957 316.699 72.789 317.059 72.533 317.339C72.277 317.619 71.897 317.759 71.393 317.759C70.889 317.759 70.509 317.619 70.253 317.339C69.997 317.059 69.825 316.699 69.737 316.259C69.657 315.819 69.617 315.279 69.617 314.639C69.617 314.007 69.657 313.471 69.737 313.031C69.825 312.591 69.997 312.231 70.253 311.951C70.509 311.671 70.889 311.531 71.393 311.531ZM79.0805 310.283C77.9365 310.283 77.1285 310.671 76.6565 311.447C76.1925 312.223 75.9605 313.287 75.9605 314.639C75.9605 315.999 76.1925 317.067 76.6565 317.843C77.1285 318.619 77.9365 319.007 79.0805 319.007C80.2245 319.007 81.0285 318.619 81.4925 317.843C81.9645 317.067 82.2005 315.999 82.2005 314.639C82.2005 313.287 81.9645 312.223 81.4925 311.447C81.0285 310.671 80.2245 310.283 79.0805 310.283ZM79.0805 311.531C79.5845 311.531 79.9645 311.671 80.2205 311.951C80.4765 312.231 80.6445 312.591 80.7245 313.031C80.8125 313.471 80.8565 314.007 80.8565 314.639C80.8565 315.279 80.8125 315.819 80.7245 316.259C80.6445 316.699 80.4765 317.059 80.2205 317.339C79.9645 317.619 79.5845 317.759 79.0805 317.759C78.5765 317.759 78.1965 317.619 77.9405 317.339C77.6845 317.059 77.5125 316.699 77.4245 316.259C77.3445 315.819 77.3045 315.279 77.3045 314.639C77.3045 314.007 77.3445 313.471 77.4245 313.031C77.5125 312.591 77.6845 312.231 77.9405 311.951C78.1965 311.671 78.5765 311.531 79.0805 311.531ZM84.38 319.115C84.132 319.115 83.924 319.031 83.756 318.863C83.588 318.695 83.504 318.487 83.504 318.239C83.504 317.991 83.588 317.783 83.756 317.615C83.924 317.447 84.132 317.363 84.38 317.363C84.62 317.363 84.824 317.447 84.992 317.615C85.16 317.783 85.244 317.991 85.244 318.239C85.244 318.487 85.16 318.695 84.992 318.863C84.824 319.031 84.62 319.115 84.38 319.115ZM89.6625 310.283C88.5185 310.283 87.7105 310.671 87.2385 311.447C86.7745 312.223 86.5425 313.287 86.5425 314.639C86.5425 315.999 86.7745 317.067 87.2385 317.843C87.7105 318.619 88.5185 319.007 89.6625 319.007C90.8065 319.007 91.6105 318.619 92.0745 317.843C92.5465 317.067 92.7825 315.999 92.7825 314.639C92.7825 313.287 92.5465 312.223 92.0745 311.447C91.6105 310.671 90.8065 310.283 89.6625 310.283ZM89.6625 311.531C90.1665 311.531 90.5465 311.671 90.8025 311.951C91.0585 312.231 91.2265 312.591 91.3065 313.031C91.3945 313.471 91.4385 314.007 91.4385 314.639C91.4385 315.279 91.3945 315.819 91.3065 316.259C91.2265 316.699 91.0585 317.059 90.8025 317.339C90.5465 317.619 90.1665 317.759 89.6625 317.759C89.1585 317.759 88.7785 317.619 88.5225 317.339C88.2665 317.059 88.0945 316.699 88.0065 316.259C87.9265 315.819 87.8865 315.279 87.8865 314.639C87.8865 314.007 87.9265 313.471 88.0065 313.031C88.0945 312.591 88.2665 312.231 88.5225 311.951C88.7785 311.671 89.1585 311.531 89.6625 311.531ZM97.35 310.283C96.206 310.283 95.398 310.671 94.926 311.447C94.462 312.223 94.23 313.287 94.23 314.639C94.23 315.999 94.462 317.067 94.926 317.843C95.398 318.619 96.206 319.007 97.35 319.007C98.494 319.007 99.298 318.619 99.762 317.843C100.234 317.067 100.47 315.999 100.47 314.639C100.47 313.287 100.234 312.223 99.762 311.447C99.298 310.671 98.494 310.283 97.35 310.283ZM97.35 311.531C97.854 311.531 98.234 311.671 98.49 311.951C98.746 312.231 98.914 312.591 98.994 313.031C99.082 313.471 99.126 314.007 99.126 314.639C99.126 315.279 99.082 315.819 98.994 316.259C98.914 316.699 98.746 317.059 98.49 317.339C98.234 317.619 97.854 317.759 97.35 317.759C96.846 317.759 96.466 317.619 96.21 317.339C95.954 317.059 95.782 316.699 95.694 316.259C95.614 315.819 95.574 315.279 95.574 314.639C95.574 314.007 95.614 313.471 95.694 313.031C95.782 312.591 95.954 312.231 96.21 311.951C96.466 311.671 96.846 311.531 97.35 311.531Z" fill="#828282"/>
<path fill-rule="evenodd" clip-rule="evenodd" d="M46.7754 52.8827H36.4117L41.1688 48.1255L39.9795 46.9362L33.1836 53.7322L39.9795 60.5281L41.1688 59.3388L36.4117 54.5817H46.7754V52.8827Z" fill="white"/>
<path fill-rule="evenodd" clip-rule="evenodd" d="M203.082 226.179C201.179 226.179 199.684 227.674 199.684 229.577C199.684 231.48 201.179 232.975 203.082 232.975C204.984 232.975 206.48 231.48 206.48 229.577C206.48 227.674 204.984 226.179 203.082 226.179ZM203.082 222.781C199.344 222.781 196.286 225.839 196.286 229.577C196.286 233.314 199.344 236.373 203.082 236.373C206.819 236.373 209.877 233.314 209.877 229.577C209.877 225.839 206.819 222.781 203.082 222.781ZM203.082 235.013C200.091 235.013 197.645 232.567 197.645 229.577C197.645 226.587 200.091 224.14 203.082 224.14C206.072 224.14 208.518 226.587 208.518 229.577C208.518 232.567 206.072 235.013 203.082 235.013Z" fill="#54BE67"/>
<path opacity="0.54" fill-rule="evenodd" clip-rule="evenodd" d="M203.081 305.465C199.967 305.465 197.418 308.013 197.418 311.128C197.418 314.243 199.967 316.791 203.081 316.791C206.196 316.791 208.745 314.243 208.745 311.128C208.745 308.013 206.196 305.465 203.081 305.465ZM203.082 315.658C200.59 315.658 198.551 313.62 198.551 311.128C198.551 308.636 200.59 306.597 203.082 306.597C205.573 306.597 207.612 308.636 207.612 311.128C207.612 313.62 205.573 315.658 203.082 315.658Z" fill="#010101"/>
</g>
<path fill-rule="evenodd" clip-rule="evenodd" d="M235.009 59.979C235.009 47.3578 224.787 37.1352 212.165 37.1352H191.891C189.368 37.1352 187.323 39.1807 187.323 41.704V42.2751C187.323 49.2424 181.726 54.8392 174.759 54.8392H81.0989C74.1315 54.8392 68.5348 49.2424 68.5348 42.2751V41.704C68.5348 39.1807 66.4893 37.1352 63.966 37.1352H43.6921C31.0709 37.1352 20.8483 47.3578 20.8483 59.979V478.021C20.8483 490.642 31.0709 500.865 43.6921 500.865H212.165C224.787 500.865 235.009 490.642 235.009 478.021V59.979ZM43.6921 26.8555H212.165C230.44 26.8555 245.289 41.704 245.289 59.979V478.021C245.289 496.296 230.44 511.144 212.165 511.144H43.6921C25.4171 511.144 10.5686 496.296 10.5686 478.021V59.979C10.5686 41.704 25.4171 26.8555 43.6921 26.8555Z" fill="#333333"/>
<path d="M157.626 42.2751C157.626 44.4829 155.836 46.2727 153.628 46.2727C151.42 46.2727 149.63 44.4829 149.63 42.2751C149.63 40.0672 151.42 38.2774 153.628 38.2774C155.836 38.2774 157.626 40.0672 157.626 42.2751Z" fill="#4F4F4F"/>
<path d="M115.079 40.5618C114.133 40.5618 113.366 41.3288 113.366 42.2751C113.366 43.2213 114.133 43.9884 115.079 43.9884H140.207C141.153 43.9884 141.921 43.2213 141.921 42.2751C141.921 41.3288 141.153 40.5618 140.207 40.5618H115.079Z" fill="#4F4F4F"/>
</g>
<defs>
<filter id="filter0_d" x="15.635" y="190.597" width="214.533" height="89.6582" filterUnits="userSpaceOnUse" color-interpolation-filters="sRGB">
<feFlood flood-opacity="0" result="BackgroundImageFix"/>
<feColorMatrix in="SourceAlpha" type="matrix" values="0 0 0 0 0 0 0 0 0 0 0 0 0 0 0 0 0 0 127 0"/>
<feOffset dx="-5" dy="5"/>
<feGaussianBlur stdDeviation="5"/>
<feColorMatrix type="matrix" values="0 0 0 0 0 0 0 0 0 0 0 0 0 0 0 0 0 0 0.1 0"/>
<feBlend mode="normal" in2="BackgroundImageFix" result="effect1_dropShadow"/>
<feBlend mode="normal" in="SourceGraphic" in2="effect1_dropShadow" result="shape"/>
</filter>
<filter id="filter1_d" x="15.635" y="273.847" width="214.533" height="89.6582" filterUnits="userSpaceOnUse" color-interpolation-filters="sRGB">
<feFlood flood-opacity="0" result="BackgroundImageFix"/>
<feColorMatrix in="SourceAlpha" type="matrix" values="0 0 0 0 0 0 0 0 0 0 0 0 0 0 0 0 0 0 127 0"/>
<feOffset dx="-5" dy="5"/>
<feGaussianBlur stdDeviation="5"/>
<feColorMatrix type="matrix" values="0 0 0 0 0 0 0 0 0 0 0 0 0 0 0 0 0 0 0.1 0"/>
<feBlend mode="normal" in2="BackgroundImageFix" result="effect1_dropShadow"/>
<feBlend mode="normal" in="SourceGraphic" in2="effect1_dropShadow" result="shape"/>
</filter>
<linearGradient id="paint0_linear" x1="26.8122" y1="230.426" x2="197.56" y2="90.685" gradientUnits="userSpaceOnUse">
<stop stop-color="#19A97C"/>
<stop offset="1" stop-color="#65C561"/>
</linearGradient>
</defs>
</svg>
